<?xml version="1.0" encoding="utf-8"?>
<!-- Generator: Adobe Illustrator 16.0.3, SVG Export Plug-In . SVG Version: 6.00 Build 0)  -->
<!DOCTYPE svg PUBLIC "-//W3C//DTD SVG 1.1//EN" "http://www.w3.org/Graphics/SVG/1.1/DTD/svg11.dtd">
<svg version="1.1" id="Layer_1" xmlns="http://www.w3.org/2000/svg" xmlns:xlink="http://www.w3.org/1999/xlink" x="0px" y="0px"
	 width="285.041px" height="287.382px" viewBox="0 0 285.041 287.382" enable-background="new 0 0 285.041 287.382"
	 xml:space="preserve">
<g>
	<g>
		<g>
			<linearGradient id="SVGID_1_" gradientUnits="userSpaceOnUse" x1="179.9453" y1="72.0405" x2="187.9632" y2="90.032">
				<stop  offset="0.0354" style="stop-color:#FFA98C"/>
				<stop  offset="0.3169" style="stop-color:#FFB892"/>
				<stop  offset="0.8601" style="stop-color:#FEE1A3"/>
				<stop  offset="1" style="stop-color:#FEECA8"/>
			</linearGradient>
			<polygon fill="url(#SVGID_1_)" points="159.164,75.127 159.164,82.476 196.882,60.33 196.882,52.981 			"/>
			<linearGradient id="SVGID_2_" gradientUnits="userSpaceOnUse" x1="100.2188" y1="18.9609" x2="177.2542" y2="112.7765">
				<stop  offset="0.0354" style="stop-color:#FFA98C"/>
				<stop  offset="0.3169" style="stop-color:#FFB892"/>
				<stop  offset="0.8601" style="stop-color:#FEE1A3"/>
				<stop  offset="1" style="stop-color:#FEECA8"/>
			</linearGradient>
			<polygon fill="url(#SVGID_2_)" points="159.185,75.127 159.185,82.476 121.479,60.495 121.479,53.17 			"/>
			<linearGradient id="SVGID_3_" gradientUnits="userSpaceOnUse" x1="178" y1="-30.8271" x2="153.9997" y2="76.1736">
				<stop  offset="0.0354" style="stop-color:#FFA98C"/>
				<stop  offset="0.3169" style="stop-color:#FFB892"/>
				<stop  offset="0.8601" style="stop-color:#FEE1A3"/>
				<stop  offset="1" style="stop-color:#FEECA8"/>
			</linearGradient>
			<polygon fill="url(#SVGID_3_)" points="121.479,53.17 159.185,75.127 196.882,52.981 159.136,31 			"/>
			<radialGradient id="SVGID_4_" cx="159.1807" cy="63.9048" r="27.8148" gradientUnits="userSpaceOnUse">
				<stop  offset="0.096" style="stop-color:#FFE4A7"/>
				<stop  offset="0.4205" style="stop-color:#F4BE4C"/>
				<stop  offset="0.6717" style="stop-color:#ECA30A"/>
				<stop  offset="1" style="stop-color:#000000"/>
			</radialGradient>
			<polygon fill="url(#SVGID_4_)" points="159.185,74.527 121.992,52.868 121.479,53.17 159.185,75.127 196.882,52.981 
				196.369,52.683 			"/>
		</g>
		<g>
			<linearGradient id="SVGID_5_" gradientUnits="userSpaceOnUse" x1="179.9443" y1="61.7065" x2="187.9616" y2="79.6965">
				<stop  offset="0.0354" style="stop-color:#FFA98C"/>
				<stop  offset="0.3169" style="stop-color:#FFB892"/>
				<stop  offset="0.8601" style="stop-color:#FEE1A3"/>
				<stop  offset="1" style="stop-color:#FEECA8"/>
			</linearGradient>
			<polygon fill="url(#SVGID_5_)" points="159.164,64.794 159.164,72.143 196.882,49.997 196.882,42.648 			"/>
			<linearGradient id="SVGID_6_" gradientUnits="userSpaceOnUse" x1="100.2197" y1="8.6279" x2="177.2536" y2="102.4416">
				<stop  offset="0.0354" style="stop-color:#FFA98C"/>
				<stop  offset="0.3169" style="stop-color:#FFB892"/>
				<stop  offset="0.8601" style="stop-color:#FEE1A3"/>
				<stop  offset="1" style="stop-color:#FEECA8"/>
			</linearGradient>
			<polygon fill="url(#SVGID_6_)" points="159.185,64.794 159.185,72.143 121.479,50.162 121.479,42.836 			"/>
			<linearGradient id="SVGID_7_" gradientUnits="userSpaceOnUse" x1="178" y1="-41.1597" x2="154" y2="65.8399">
				<stop  offset="0.0354" style="stop-color:#FFA98C"/>
				<stop  offset="0.3169" style="stop-color:#FFB892"/>
				<stop  offset="0.8601" style="stop-color:#FEE1A3"/>
				<stop  offset="1" style="stop-color:#FEECA8"/>
			</linearGradient>
			<polygon fill="url(#SVGID_7_)" points="121.479,42.836 159.185,64.794 196.882,42.648 159.136,20.667 			"/>
			<radialGradient id="SVGID_8_" cx="159.1807" cy="53.5718" r="27.8147" gradientUnits="userSpaceOnUse">
				<stop  offset="0.096" style="stop-color:#FFE4A7"/>
				<stop  offset="0.4205" style="stop-color:#F4BE4C"/>
				<stop  offset="0.6717" style="stop-color:#ECA30A"/>
				<stop  offset="1" style="stop-color:#000000"/>
			</radialGradient>
			<polygon fill="url(#SVGID_8_)" points="159.185,64.194 121.992,42.535 121.479,42.836 159.185,64.794 196.882,42.648 
				196.369,42.349 			"/>
		</g>
		<g>
			<linearGradient id="SVGID_9_" gradientUnits="userSpaceOnUse" x1="179.9443" y1="51.373" x2="187.9616" y2="69.363">
				<stop  offset="0.0354" style="stop-color:#FFA98C"/>
				<stop  offset="0.3169" style="stop-color:#FFB892"/>
				<stop  offset="0.8601" style="stop-color:#FEE1A3"/>
				<stop  offset="1" style="stop-color:#FEECA8"/>
			</linearGradient>
			<polygon fill="url(#SVGID_9_)" points="159.164,54.461 159.164,61.809 196.882,39.663 196.882,32.314 			"/>
			<linearGradient id="SVGID_10_" gradientUnits="userSpaceOnUse" x1="100.2197" y1="-1.7056" x2="177.2536" y2="92.1081">
				<stop  offset="0.0354" style="stop-color:#FFA98C"/>
				<stop  offset="0.3169" style="stop-color:#FFB892"/>
				<stop  offset="0.8601" style="stop-color:#FEE1A3"/>
				<stop  offset="1" style="stop-color:#FEECA8"/>
			</linearGradient>
			<polygon fill="url(#SVGID_10_)" points="159.185,54.461 159.185,61.809 121.479,39.828 121.479,32.503 			"/>
			<linearGradient id="SVGID_11_" gradientUnits="userSpaceOnUse" x1="178" y1="-51.4937" x2="153.9997" y2="55.5071">
				<stop  offset="0.0354" style="stop-color:#FFA98C"/>
				<stop  offset="0.3169" style="stop-color:#FFB892"/>
				<stop  offset="0.8601" style="stop-color:#FEE1A3"/>
				<stop  offset="1" style="stop-color:#FEECA8"/>
			</linearGradient>
			<polygon fill="url(#SVGID_11_)" points="121.479,32.503 159.185,54.461 196.882,32.314 159.136,10.333 			"/>
			<radialGradient id="SVGID_12_" cx="159.1807" cy="43.2388" r="27.8147" gradientUnits="userSpaceOnUse">
				<stop  offset="0.096" style="stop-color:#FFE4A7"/>
				<stop  offset="0.4205" style="stop-color:#F4BE4C"/>
				<stop  offset="0.6717" style="stop-color:#ECA30A"/>
				<stop  offset="1" style="stop-color:#000000"/>
			</radialGradient>
			<polygon fill="url(#SVGID_12_)" points="159.185,53.861 121.992,32.202 121.479,32.503 159.185,54.461 196.882,32.314 
				196.369,32.016 			"/>
		</g>
		<g>
			<linearGradient id="SVGID_13_" gradientUnits="userSpaceOnUse" x1="179.9443" y1="41.041" x2="187.9623" y2="59.0325">
				<stop  offset="0.0354" style="stop-color:#FFA98C"/>
				<stop  offset="0.3169" style="stop-color:#FFB892"/>
				<stop  offset="0.8601" style="stop-color:#FEE1A3"/>
				<stop  offset="1" style="stop-color:#FEECA8"/>
			</linearGradient>
			<polygon fill="url(#SVGID_13_)" points="159.164,44.127 159.164,51.476 196.882,29.33 196.882,21.981 			"/>
			<linearGradient id="SVGID_14_" gradientUnits="userSpaceOnUse" x1="100.2197" y1="-12.0386" x2="177.2536" y2="81.775">
				<stop  offset="0.0354" style="stop-color:#FFA98C"/>
				<stop  offset="0.3169" style="stop-color:#FFB892"/>
				<stop  offset="0.8601" style="stop-color:#FEE1A3"/>
				<stop  offset="1" style="stop-color:#FEECA8"/>
			</linearGradient>
			<polygon fill="url(#SVGID_14_)" points="159.185,44.127 159.185,51.476 121.479,29.495 121.479,22.17 			"/>
			<linearGradient id="SVGID_15_" gradientUnits="userSpaceOnUse" x1="183.8633" y1="-87.9673" x2="159.863" y2="19.0334">
				<stop  offset="0.0354" style="stop-color:#FFA98C"/>
				<stop  offset="0.3169" style="stop-color:#FFB892"/>
				<stop  offset="0.8601" style="stop-color:#FEE1A3"/>
				<stop  offset="1" style="stop-color:#FEECA8"/>
			</linearGradient>
			<polygon fill="url(#SVGID_15_)" points="121.479,22.17 159.185,44.127 196.882,21.981 159.136,0 			"/>
			<polygon fill="#45108A" points="127.417,22.156 159.144,3.477 190.939,21.993 159.179,40.652 			"/>
			<linearGradient id="SVGID_16_" gradientUnits="userSpaceOnUse" x1="152.5928" y1="12.8101" x2="174.9257" y2="44.2261">
				<stop  offset="0" style="stop-color:#25054D"/>
				<stop  offset="1" style="stop-color:#45108A"/>
			</linearGradient>
			<polygon fill="url(#SVGID_16_)" points="159.144,4.977 189.657,22.746 190.939,21.993 159.144,3.477 127.417,22.156 
				128.697,22.902 			"/>
			<polygon fill="#330A66" points="159.144,4.977 189.657,22.746 190.939,21.993 159.144,3.477 			"/>
			<radialGradient id="SVGID_17_" cx="159.1807" cy="32.9048" r="27.8148" gradientUnits="userSpaceOnUse">
				<stop  offset="0.096" style="stop-color:#FFE4A7"/>
				<stop  offset="0.4205" style="stop-color:#F4BE4C"/>
				<stop  offset="0.6717" style="stop-color:#ECA30A"/>
				<stop  offset="1" style="stop-color:#000000"/>
			</radialGradient>
			<polygon fill="url(#SVGID_17_)" points="159.185,43.527 121.992,21.868 121.479,22.17 159.185,44.127 196.882,21.981 
				196.369,21.683 			"/>
		</g>
		<path fill="#43E8E1" d="M178.63,23.924c-3.918-2.223-6.544-5.091-7.516-8.206l-0.043-0.025
			c-5.395-0.561-10.362-2.077-14.213-4.339l-0.146-0.086l-2.107,1.459c-7.408,5.128-8.642,10.271-7.653,16.831l0.15,0.086
			c11.362,0.571,20.27-0.142,29.151-4.418l2.527-1.217L178.63,23.924z"/>
	</g>
	<g>
		<linearGradient id="SVGID_18_" gradientUnits="userSpaceOnUse" x1="208.6455" y1="190.0981" x2="236.2555" y2="252.0524">
			<stop  offset="0" style="stop-color:#25054D"/>
			<stop  offset="1" style="stop-color:#45108A"/>
		</linearGradient>
		<polygon fill="url(#SVGID_18_)" points="183.17,167.149 183.17,205.498 220.888,183.351 220.888,145.002 		"/>
		<polygon fill="#330A66" points="183.19,167.149 183.19,205.498 145.485,183.516 145.485,145.192 		"/>
		<polygon fill="#45108A" points="145.485,145.192 183.19,167.149 220.888,145.002 183.142,123.022 		"/>
		<radialGradient id="SVGID_19_" cx="183.1865" cy="155.9263" r="38.6601" gradientUnits="userSpaceOnUse">
			<stop  offset="0.096" style="stop-color:#45108A"/>
			<stop  offset="0.6717" style="stop-color:#25054D"/>
			<stop  offset="1" style="stop-color:#000000"/>
		</radialGradient>
		<polygon fill="url(#SVGID_19_)" points="183.19,166.549 145.998,144.89 145.485,145.192 183.19,167.149 220.888,145.002 
			220.375,144.705 		"/>
	</g>
	<g>
		<linearGradient id="SVGID_20_" gradientUnits="userSpaceOnUse" x1="163.8389" y1="215.5073" x2="191.4482" y2="277.4601">
			<stop  offset="0" style="stop-color:#25054D"/>
			<stop  offset="1" style="stop-color:#45108A"/>
		</linearGradient>
		<polygon fill="url(#SVGID_20_)" points="138.363,192.559 138.363,230.907 176.081,208.761 176.081,170.413 		"/>
		<polygon fill="#330A66" points="138.385,192.559 138.385,230.907 100.679,208.926 100.679,170.601 		"/>
		<polygon fill="#45108A" points="100.679,170.601 138.385,192.559 176.081,170.413 138.335,148.431 		"/>
		<radialGradient id="SVGID_21_" cx="138.3809" cy="181.3364" r="38.6591" gradientUnits="userSpaceOnUse">
			<stop  offset="0.096" style="stop-color:#45108A"/>
			<stop  offset="0.6717" style="stop-color:#25054D"/>
			<stop  offset="1" style="stop-color:#000000"/>
		</radialGradient>
		<polygon fill="url(#SVGID_21_)" points="138.385,191.958 101.191,170.299 100.68,170.601 138.385,192.559 176.081,170.413 
			175.568,170.114 		"/>
	</g>
	<g>
		<linearGradient id="SVGID_22_" gradientUnits="userSpaceOnUse" x1="251.3184" y1="215.9351" x2="278.9277" y2="277.8878">
			<stop  offset="0" style="stop-color:#25054D"/>
			<stop  offset="1" style="stop-color:#45108A"/>
		</linearGradient>
		<polygon fill="url(#SVGID_22_)" points="225.843,192.986 225.843,231.334 263.561,209.189 263.561,170.84 		"/>
		<polygon fill="#330A66" points="225.863,192.986 225.863,231.334 188.158,209.354 188.158,171.029 		"/>
		<polygon fill="#45108A" points="188.158,171.029 225.863,192.986 263.561,170.84 225.814,148.859 		"/>
	</g>
	<g>
		<linearGradient id="SVGID_23_" gradientUnits="userSpaceOnUse" x1="207.5791" y1="241.3452" x2="235.1891" y2="303.2995">
			<stop  offset="0" style="stop-color:#25054D"/>
			<stop  offset="1" style="stop-color:#45108A"/>
		</linearGradient>
		<polygon fill="url(#SVGID_23_)" points="182.104,218.396 182.104,256.745 219.82,234.598 219.82,196.25 		"/>
		<polygon fill="#330A66" points="182.124,218.396 182.124,256.745 144.419,234.763 144.419,196.438 		"/>
		<polygon fill="#45108A" points="144.419,196.438 182.124,218.396 219.82,196.25 182.074,174.269 		"/>
	</g>
	<g>
		<g>
			<linearGradient id="SVGID_24_" gradientUnits="userSpaceOnUse" x1="52.0586" y1="231.2661" x2="77.7969" y2="289.0205">
				<stop  offset="0.0354" style="stop-color:#FFA98C"/>
				<stop  offset="0.3169" style="stop-color:#FFB892"/>
				<stop  offset="0.8601" style="stop-color:#FEE1A3"/>
				<stop  offset="1" style="stop-color:#FEECA8"/>
			</linearGradient>
			<polygon fill="url(#SVGID_24_)" points="37.685,203.095 37.685,241.444 54.096,231.754 54.096,193.406 			"/>
			<linearGradient id="SVGID_25_" gradientUnits="userSpaceOnUse" x1="-61.0386" y1="113.9854" x2="76.9863" y2="282.0752">
				<stop  offset="0.0354" style="stop-color:#FFA98C"/>
				<stop  offset="0.3169" style="stop-color:#FFB892"/>
				<stop  offset="0.8601" style="stop-color:#FEE1A3"/>
				<stop  offset="1" style="stop-color:#FEECA8"/>
			</linearGradient>
			<polygon fill="url(#SVGID_25_)" points="37.706,203.095 37.706,241.444 0,219.463 0,181.138 			"/>
			<polygon fill="#330A66" points="3,217.739 3,186.356 34.706,204.82 34.706,236.222 			"/>
			<linearGradient id="SVGID_26_" gradientUnits="userSpaceOnUse" x1="5.1792" y1="211.2896" x2="18.3459" y2="211.2896">
				<stop  offset="0" style="stop-color:#25054D"/>
				<stop  offset="1" style="stop-color:#45108A"/>
			</linearGradient>
			<polygon fill="url(#SVGID_26_)" points="4.083,217.156 4.083,186.987 3,186.356 3,217.739 34.706,236.222 34.706,235.007 			"/>
			<polygon fill="#45108A" points="4.083,217.156 3,217.739 34.706,236.222 34.706,235.007 			"/>
			<linearGradient id="SVGID_27_" gradientUnits="userSpaceOnUse" x1="39.8174" y1="130.3452" x2="25.1943" y2="195.5397">
				<stop  offset="0.0354" style="stop-color:#FFA98C"/>
				<stop  offset="0.3169" style="stop-color:#FFB892"/>
				<stop  offset="0.8601" style="stop-color:#FEE1A3"/>
				<stop  offset="1" style="stop-color:#FEECA8"/>
			</linearGradient>
			<polygon fill="url(#SVGID_27_)" points="0,181.138 37.706,203.095 54.096,193.406 16.35,171.425 			"/>
			<radialGradient id="SVGID_28_" cx="27.0479" cy="191.9653" r="35.882" gradientUnits="userSpaceOnUse">
				<stop  offset="0.096" style="stop-color:#FFE4A7"/>
				<stop  offset="0.4205" style="stop-color:#F4BE4C"/>
				<stop  offset="0.6717" style="stop-color:#ECA30A"/>
				<stop  offset="1" style="stop-color:#000000"/>
			</radialGradient>
			<polygon fill="url(#SVGID_28_)" points="37.706,202.496 0.51,180.834 0,181.138 37.706,203.095 54.096,193.406 53.585,193.109 
							"/>
		</g>
		<path fill="#43E8E1" d="M20.607,213.339v8.372l-3.762-2.172v-8.372c-1.499-1.677-2.539-4.022-2.539-6.05
			c0-2.802,1.979-3.93,4.42-2.521s4.42,4.822,4.42,7.624C23.146,212.249,22.106,213.393,20.607,213.339z"/>
		<radialGradient id="SVGID_29_" cx="27.5957" cy="208.4204" r="17.46" gradientUnits="userSpaceOnUse">
			<stop  offset="0" style="stop-color:#FFFFFF"/>
			<stop  offset="1" style="stop-color:#000000"/>
		</radialGradient>
		<path fill="url(#SVGID_29_)" d="M20.607,213.339v8.372l-3.762-2.172v-8.372c-1.499-1.677-2.539-4.022-2.539-6.05
			c0-2.802,1.979-3.93,4.42-2.521s4.42,4.822,4.42,7.624C23.146,212.249,22.106,213.393,20.607,213.339z"/>
	</g>
	<g>
		<linearGradient id="SVGID_30_" gradientUnits="userSpaceOnUse" x1="121.167" y1="241.7319" x2="148.777" y2="303.6862">
			<stop  offset="0" style="stop-color:#25054D"/>
			<stop  offset="1" style="stop-color:#45108A"/>
		</linearGradient>
		<polygon fill="url(#SVGID_30_)" points="95.691,218.784 95.691,257.132 133.408,234.986 133.408,196.637 		"/>
		<polygon fill="#330A66" points="95.712,218.784 95.712,257.132 58.006,235.151 58.006,196.827 		"/>
		<radialGradient id="SVGID_31_" cx="48.8457" cy="220.2554" r="47.6784" gradientUnits="userSpaceOnUse">
			<stop  offset="0" style="stop-color:#FDD65B"/>
			<stop  offset="0.2056" style="stop-color:#B19540"/>
			<stop  offset="0.4744" style="stop-color:#52461E"/>
			<stop  offset="0.6629" style="stop-color:#171308"/>
			<stop  offset="0.7525" style="stop-color:#000000"/>
		</radialGradient>
		<polygon opacity="0.2" fill="url(#SVGID_31_)" points="69.283,222.986 69.283,203.393 58.007,196.827 58.007,229.608 		"/>
		<polygon fill="#45108A" points="58.006,196.827 95.712,218.784 133.408,196.637 95.662,174.657 		"/>
		<radialGradient id="SVGID_32_" cx="95.707" cy="207.561" r="38.3983" gradientUnits="userSpaceOnUse">
			<stop  offset="0.096" style="stop-color:#45108A"/>
			<stop  offset="0.6717" style="stop-color:#25054D"/>
			<stop  offset="1" style="stop-color:#000000"/>
		</radialGradient>
		<polygon fill="url(#SVGID_32_)" points="95.712,218.184 58.519,196.525 58.007,196.827 95.712,218.784 133.408,196.637 
			132.896,196.339 		"/>
	</g>
	<g>
		<linearGradient id="SVGID_33_" gradientUnits="userSpaceOnUse" x1="78.4951" y1="172.9692" x2="106.1051" y2="234.9235">
			<stop  offset="0" style="stop-color:#25054D"/>
			<stop  offset="1" style="stop-color:#45108A"/>
		</linearGradient>
		<polygon fill="url(#SVGID_33_)" points="53.019,150.021 53.019,188.37 90.736,166.223 90.736,127.875 		"/>
		<polygon fill="#330A66" points="53.039,150.021 53.039,188.37 15.334,166.388 15.334,128.064 		"/>
		<polygon fill="#45108A" points="15.334,128.064 53.039,150.021 90.736,127.875 52.99,105.894 		"/>
		<radialGradient id="SVGID_34_" cx="53.0352" cy="138.7993" r="38.6589" gradientUnits="userSpaceOnUse">
			<stop  offset="0.096" style="stop-color:#45108A"/>
			<stop  offset="0.6717" style="stop-color:#25054D"/>
			<stop  offset="1" style="stop-color:#000000"/>
		</radialGradient>
		<polygon fill="url(#SVGID_34_)" points="53.039,149.421 15.846,127.762 15.334,128.064 53.039,150.021 90.735,127.875 
			90.223,127.577 		"/>
		<radialGradient id="SVGID_35_" cx="30.0967" cy="185.8794" r="45.8546" gradientUnits="userSpaceOnUse">
			<stop  offset="0" style="stop-color:#FDD65B"/>
			<stop  offset="0.2056" style="stop-color:#B19540"/>
			<stop  offset="0.4744" style="stop-color:#52461E"/>
			<stop  offset="0.6629" style="stop-color:#171308"/>
			<stop  offset="0.7525" style="stop-color:#000000"/>
		</radialGradient>
		<path opacity="0.2" fill="url(#SVGID_35_)" d="M36.941,168.117l-6.377-3.682c-2.539-1.466-4.839-1.616-6.51-0.68v-0.005
			l-3.288,1.965c1.664-0.887,3.926-0.722,6.423,0.72l6.377,3.682c3.983,2.3,7.367,7.15,8.668,11.954l3.951,2.304v-0.312
			C46.186,178.204,42.047,171.064,36.941,168.117z"/>
	</g>
	<g>
		<linearGradient id="SVGID_36_" gradientUnits="userSpaceOnUse" x1="163.8389" y1="266.7544" x2="191.4482" y2="328.7072">
			<stop  offset="0" style="stop-color:#25054D"/>
			<stop  offset="1" style="stop-color:#45108A"/>
		</linearGradient>
		<polygon fill="url(#SVGID_36_)" points="138.363,243.805 138.363,282.154 176.081,260.008 176.081,221.66 		"/>
		<polygon fill="#330A66" points="138.385,243.805 138.385,282.154 100.679,260.173 100.679,221.848 		"/>
		<polygon fill="#45108A" points="100.679,221.848 138.385,243.805 176.081,221.66 138.335,199.678 		"/>
		<radialGradient id="SVGID_37_" cx="138.3809" cy="232.5825" r="38.6591" gradientUnits="userSpaceOnUse">
			<stop  offset="0.096" style="stop-color:#45108A"/>
			<stop  offset="0.6717" style="stop-color:#25054D"/>
			<stop  offset="1" style="stop-color:#000000"/>
		</radialGradient>
		<polygon fill="url(#SVGID_37_)" points="138.385,243.206 101.191,221.546 100.68,221.848 138.385,243.805 176.081,221.66 
			175.568,221.361 		"/>
	</g>
	<g>
		<linearGradient id="SVGID_38_" gradientUnits="userSpaceOnUse" x1="121.166" y1="197.9917" x2="148.7753" y2="259.9445">
			<stop  offset="0" style="stop-color:#25054D"/>
			<stop  offset="1" style="stop-color:#45108A"/>
		</linearGradient>
		<polygon fill="url(#SVGID_38_)" points="95.691,175.042 95.691,213.391 133.408,191.245 133.408,152.897 		"/>
		<polygon fill="#330A66" points="95.712,175.042 95.712,213.391 58.006,191.411 58.006,153.085 		"/>
		<polygon fill="#45108A" points="58.006,153.085 95.712,175.042 133.408,152.897 95.662,130.916 		"/>
		<radialGradient id="SVGID_39_" cx="95.707" cy="163.8208" r="38.6598" gradientUnits="userSpaceOnUse">
			<stop  offset="0.096" style="stop-color:#45108A"/>
			<stop  offset="0.6717" style="stop-color:#25054D"/>
			<stop  offset="1" style="stop-color:#000000"/>
		</radialGradient>
		<polygon fill="url(#SVGID_39_)" points="95.712,174.443 58.519,152.784 58.007,153.085 95.712,175.042 133.408,152.897 
			132.896,152.598 		"/>
	</g>
	<g>
		<g>
			<linearGradient id="SVGID_40_" gradientUnits="userSpaceOnUse" x1="159.1436" y1="227.9771" x2="167.1601" y2="245.9655">
				<stop  offset="0" style="stop-color:#25054D"/>
				<stop  offset="1" style="stop-color:#45108A"/>
			</linearGradient>
			<polygon fill="url(#SVGID_40_)" points="138.363,231.065 138.363,238.413 176.081,216.267 176.081,208.918 			"/>
			<polygon fill="#330A66" points="138.385,231.065 138.385,238.413 100.679,216.432 100.679,209.107 			"/>
			<polygon fill="#45108A" points="100.679,209.107 138.385,231.065 176.081,208.918 138.335,186.937 			"/>
		</g>
		<g>
			<g>
				<path fill="#43E8E1" d="M104.289,206.131l34.094,19.854l34.088-20.026l-34.132-19.876L104.289,206.131z M138.384,227.065
					c-0.087,0-0.174-0.022-0.252-0.068l-35.084-20.432c-0.153-0.089-0.248-0.253-0.248-0.431s0.094-0.342,0.246-0.432l35.038-20.629
					c0.155-0.092,0.349-0.094,0.506-0.001l35.123,20.453c0.153,0.089,0.248,0.253,0.248,0.431s-0.094,0.342-0.247,0.432
					l-35.077,20.607C138.559,227.042,138.472,227.065,138.384,227.065z"/>
			</g>
			<path fill="#43E8E1" d="M104.289,201.756l34.094,19.854l34.088-20.026l-34.132-19.876L104.289,201.756z M138.384,222.69
				c-0.087,0-0.174-0.022-0.252-0.068l-35.084-20.432c-0.153-0.089-0.248-0.253-0.248-0.431s0.094-0.342,0.246-0.432l35.038-20.629
				c0.155-0.092,0.349-0.094,0.506-0.001l35.123,20.453c0.153,0.089,0.248,0.253,0.248,0.431s-0.094,0.342-0.247,0.432
				l-35.077,20.607C138.559,222.667,138.472,222.69,138.384,222.69z"/>
			<path fill="#43E8E1" d="M104.289,197.381l34.094,19.854l34.088-20.026l-34.132-19.876L104.289,197.381z M138.384,218.315
				c-0.087,0-0.174-0.022-0.252-0.068l-35.084-20.432c-0.153-0.089-0.248-0.253-0.248-0.431s0.094-0.342,0.246-0.432l35.038-20.629
				c0.155-0.091,0.349-0.094,0.506-0.001l35.123,20.453c0.153,0.089,0.248,0.253,0.248,0.431s-0.094,0.342-0.247,0.432
				l-35.077,20.607C138.559,218.292,138.472,218.315,138.384,218.315z"/>
			<path fill="#43E8E1" d="M104.289,193.006l34.094,19.854l34.088-20.026l-34.132-19.876L104.289,193.006z M138.384,213.94
				c-0.087,0-0.174-0.022-0.252-0.068l-35.084-20.432c-0.153-0.089-0.248-0.253-0.248-0.431s0.094-0.342,0.246-0.432l35.038-20.629
				c0.155-0.091,0.349-0.094,0.506-0.001l35.123,20.453c0.153,0.089,0.248,0.253,0.248,0.431s-0.094,0.342-0.247,0.432
				l-35.077,20.607C138.559,213.917,138.472,213.94,138.384,213.94z"/>
			<g opacity="0.5">
				<path fill="#43E8E1" d="M104.289,188.631l34.094,19.854l34.088-20.026l-34.132-19.876L104.289,188.631z M138.384,209.565
					c-0.087,0-0.174-0.022-0.252-0.068l-35.084-20.432c-0.153-0.089-0.248-0.253-0.248-0.431s0.094-0.342,0.246-0.432l35.038-20.629
					c0.155-0.091,0.349-0.094,0.506-0.001l35.123,20.453c0.153,0.089,0.248,0.253,0.248,0.431s-0.094,0.342-0.247,0.432
					l-35.077,20.607C138.559,209.542,138.472,209.565,138.384,209.565z"/>
			</g>
		</g>
		<g>
			<linearGradient id="SVGID_41_" gradientUnits="userSpaceOnUse" x1="158.9922" y1="196.1372" x2="166.377" y2="212.708">
				<stop  offset="0" style="stop-color:#25054D"/>
				<stop  offset="1" style="stop-color:#45108A"/>
			</linearGradient>
			<polygon fill="url(#SVGID_41_)" points="138.363,200.065 138.363,206.413 176.081,184.267 176.081,177.918 			"/>
			<polygon fill="#330A66" points="138.385,200.065 138.385,206.413 100.679,184.432 100.679,178.107 			"/>
			<polygon fill="#45108A" points="100.679,178.107 138.385,200.065 176.081,177.918 138.335,155.937 			"/>
			<radialGradient id="SVGID_42_" cx="138.3809" cy="188.8423" r="38.2163" gradientUnits="userSpaceOnUse">
				<stop  offset="0.096" style="stop-color:#45108A"/>
				<stop  offset="0.6717" style="stop-color:#25054D"/>
				<stop  offset="1" style="stop-color:#000000"/>
			</radialGradient>
			<polygon fill="url(#SVGID_42_)" points="138.385,199.464 101.191,177.805 100.68,178.107 138.385,200.065 176.081,177.918 
				175.568,177.62 			"/>
			<radialGradient id="SVGID_43_" cx="178.8457" cy="194.5044" r="38.6702" gradientUnits="userSpaceOnUse">
				<stop  offset="0" style="stop-color:#FDD65B"/>
				<stop  offset="0.2056" style="stop-color:#B19540"/>
				<stop  offset="0.4744" style="stop-color:#52461E"/>
				<stop  offset="0.6629" style="stop-color:#171308"/>
				<stop  offset="0.7525" style="stop-color:#000000"/>
			</radialGradient>
			<polygon opacity="0.2" fill="url(#SVGID_43_)" points="176.081,184.267 176.081,177.918 149.179,193.714 154.604,196.877 			"/>
		</g>
		<linearGradient id="SVGID_44_" gradientUnits="userSpaceOnUse" x1="163.8389" y1="223.0122" x2="191.4475" y2="284.9635">
			<stop  offset="0" style="stop-color:#25054D"/>
			<stop  offset="1" style="stop-color:#45108A"/>
		</linearGradient>
		<polygon opacity="0.3" fill="url(#SVGID_44_)" points="138.363,200.065 138.363,238.413 176.081,216.267 176.081,177.918 		"/>
		<polygon opacity="0.1" fill="#330A66" points="138.385,200.065 138.385,238.413 100.679,216.432 100.679,178.107 		"/>
	</g>
	<g>
		<linearGradient id="SVGID_45_" gradientUnits="userSpaceOnUse" x1="251.3184" y1="172.1938" x2="278.9277" y2="234.1466">
			<stop  offset="0" style="stop-color:#25054D"/>
			<stop  offset="1" style="stop-color:#45108A"/>
		</linearGradient>
		<polygon fill="url(#SVGID_45_)" points="225.843,149.246 225.843,187.593 263.561,165.448 263.561,127.099 		"/>
		<polygon fill="#330A66" points="225.863,149.246 225.863,187.593 188.158,165.613 188.158,127.288 		"/>
		<polygon fill="#45108A" points="188.158,127.288 225.863,149.246 263.561,127.099 225.814,105.118 		"/>
		<radialGradient id="SVGID_46_" cx="225.8594" cy="138.0229" r="38.6601" gradientUnits="userSpaceOnUse">
			<stop  offset="0.096" style="stop-color:#45108A"/>
			<stop  offset="0.6717" style="stop-color:#25054D"/>
			<stop  offset="1" style="stop-color:#000000"/>
		</radialGradient>
		<polygon fill="url(#SVGID_46_)" points="225.863,148.645 188.671,126.986 188.158,127.288 225.863,149.246 263.561,127.099 
			263.048,126.8 		"/>
	</g>
	<g>
		<g>
			<linearGradient id="SVGID_47_" gradientUnits="userSpaceOnUse" x1="240.5498" y1="224.5679" x2="248.5677" y2="242.5593">
				<stop  offset="0.0354" style="stop-color:#FFA98C"/>
				<stop  offset="0.3169" style="stop-color:#FFB892"/>
				<stop  offset="0.8601" style="stop-color:#FEE1A3"/>
				<stop  offset="1" style="stop-color:#FEECA8"/>
			</linearGradient>
			<polygon fill="url(#SVGID_47_)" points="219.77,227.655 219.77,235.003 257.487,212.857 257.487,205.508 			"/>
			<linearGradient id="SVGID_48_" gradientUnits="userSpaceOnUse" x1="160.8252" y1="171.4888" x2="237.8607" y2="265.3044">
				<stop  offset="0.0354" style="stop-color:#FFA98C"/>
				<stop  offset="0.3169" style="stop-color:#FFB892"/>
				<stop  offset="0.8601" style="stop-color:#FEE1A3"/>
				<stop  offset="1" style="stop-color:#FEECA8"/>
			</linearGradient>
			<polygon fill="url(#SVGID_48_)" points="219.791,227.655 219.791,235.003 182.085,213.022 182.085,205.698 			"/>
			<linearGradient id="SVGID_49_" gradientUnits="userSpaceOnUse" x1="238.6055" y1="121.7012" x2="214.6055" y2="228.7007">
				<stop  offset="0.0354" style="stop-color:#FFA98C"/>
				<stop  offset="0.3169" style="stop-color:#FFB892"/>
				<stop  offset="0.8601" style="stop-color:#FEE1A3"/>
				<stop  offset="1" style="stop-color:#FEECA8"/>
			</linearGradient>
			<polygon fill="url(#SVGID_49_)" points="182.085,205.698 219.791,227.655 257.487,205.508 219.741,183.528 			"/>
			<radialGradient id="SVGID_50_" cx="219.7861" cy="216.4321" r="27.8148" gradientUnits="userSpaceOnUse">
				<stop  offset="0.096" style="stop-color:#FFE4A7"/>
				<stop  offset="0.4205" style="stop-color:#F4BE4C"/>
				<stop  offset="0.6717" style="stop-color:#ECA30A"/>
				<stop  offset="1" style="stop-color:#000000"/>
			</radialGradient>
			<polygon fill="url(#SVGID_50_)" points="219.791,227.055 182.598,205.396 182.085,205.698 219.791,227.655 257.487,205.508 
				256.975,205.21 			"/>
		</g>
		<g>
			<linearGradient id="SVGID_51_" gradientUnits="userSpaceOnUse" x1="240.5498" y1="214.2339" x2="248.567" y2="232.2238">
				<stop  offset="0.0354" style="stop-color:#FFA98C"/>
				<stop  offset="0.3169" style="stop-color:#FFB892"/>
				<stop  offset="0.8601" style="stop-color:#FEE1A3"/>
				<stop  offset="1" style="stop-color:#FEECA8"/>
			</linearGradient>
			<polygon fill="url(#SVGID_51_)" points="219.77,217.322 219.77,224.67 257.487,202.524 257.487,195.175 			"/>
			<linearGradient id="SVGID_52_" gradientUnits="userSpaceOnUse" x1="160.8242" y1="161.1538" x2="237.8613" y2="254.9714">
				<stop  offset="0.0354" style="stop-color:#FFA98C"/>
				<stop  offset="0.3169" style="stop-color:#FFB892"/>
				<stop  offset="0.8601" style="stop-color:#FEE1A3"/>
				<stop  offset="1" style="stop-color:#FEECA8"/>
			</linearGradient>
			<polygon fill="url(#SVGID_52_)" points="219.791,217.322 219.791,224.67 182.085,202.689 182.085,195.364 			"/>
			<linearGradient id="SVGID_53_" gradientUnits="userSpaceOnUse" x1="238.6055" y1="111.3682" x2="214.6055" y2="218.3677">
				<stop  offset="0.0354" style="stop-color:#FFA98C"/>
				<stop  offset="0.3169" style="stop-color:#FFB892"/>
				<stop  offset="0.8601" style="stop-color:#FEE1A3"/>
				<stop  offset="1" style="stop-color:#FEECA8"/>
			</linearGradient>
			<polygon fill="url(#SVGID_53_)" points="182.085,195.364 219.791,217.322 257.487,195.175 219.741,173.195 			"/>
			<radialGradient id="SVGID_54_" cx="219.7861" cy="206.0991" r="27.8148" gradientUnits="userSpaceOnUse">
				<stop  offset="0.096" style="stop-color:#FFE4A7"/>
				<stop  offset="0.4205" style="stop-color:#F4BE4C"/>
				<stop  offset="0.6717" style="stop-color:#ECA30A"/>
				<stop  offset="1" style="stop-color:#000000"/>
			</radialGradient>
			<polygon fill="url(#SVGID_54_)" points="219.791,216.721 182.598,195.063 182.085,195.364 219.791,217.322 257.487,195.175 
				256.975,194.876 			"/>
		</g>
		<g>
			<linearGradient id="SVGID_55_" gradientUnits="userSpaceOnUse" x1="240.5498" y1="203.9009" x2="248.567" y2="221.8908">
				<stop  offset="0.0354" style="stop-color:#FFA98C"/>
				<stop  offset="0.3169" style="stop-color:#FFB892"/>
				<stop  offset="0.8601" style="stop-color:#FEE1A3"/>
				<stop  offset="1" style="stop-color:#FEECA8"/>
			</linearGradient>
			<polygon fill="url(#SVGID_55_)" points="219.77,206.988 219.77,214.336 257.487,192.191 257.487,184.842 			"/>
			<linearGradient id="SVGID_56_" gradientUnits="userSpaceOnUse" x1="160.8252" y1="150.8218" x2="237.8591" y2="244.6354">
				<stop  offset="0.0354" style="stop-color:#FFA98C"/>
				<stop  offset="0.3169" style="stop-color:#FFB892"/>
				<stop  offset="0.8601" style="stop-color:#FEE1A3"/>
				<stop  offset="1" style="stop-color:#FEECA8"/>
			</linearGradient>
			<polygon fill="url(#SVGID_56_)" points="219.791,206.988 219.791,214.336 182.085,192.356 182.085,185.031 			"/>
			<linearGradient id="SVGID_57_" gradientUnits="userSpaceOnUse" x1="238.6055" y1="101.0342" x2="214.6055" y2="208.0337">
				<stop  offset="0.0354" style="stop-color:#FFA98C"/>
				<stop  offset="0.3169" style="stop-color:#FFB892"/>
				<stop  offset="0.8601" style="stop-color:#FEE1A3"/>
				<stop  offset="1" style="stop-color:#FEECA8"/>
			</linearGradient>
			<polygon fill="url(#SVGID_57_)" points="182.085,185.031 219.791,206.988 257.487,184.842 219.741,162.861 			"/>
			<radialGradient id="SVGID_58_" cx="219.7861" cy="195.7661" r="27.8146" gradientUnits="userSpaceOnUse">
				<stop  offset="0.096" style="stop-color:#FFE4A7"/>
				<stop  offset="0.4205" style="stop-color:#F4BE4C"/>
				<stop  offset="0.6717" style="stop-color:#ECA30A"/>
				<stop  offset="1" style="stop-color:#000000"/>
			</radialGradient>
			<polygon fill="url(#SVGID_58_)" points="219.791,206.388 182.598,184.729 182.085,185.031 219.791,206.988 257.487,184.842 
				256.975,184.543 			"/>
		</g>
		<g>
			<linearGradient id="SVGID_59_" gradientUnits="userSpaceOnUse" x1="240.5498" y1="193.5679" x2="248.5677" y2="211.5593">
				<stop  offset="0.0354" style="stop-color:#FFA98C"/>
				<stop  offset="0.3169" style="stop-color:#FFB892"/>
				<stop  offset="0.8601" style="stop-color:#FEE1A3"/>
				<stop  offset="1" style="stop-color:#FEECA8"/>
			</linearGradient>
			<polygon fill="url(#SVGID_59_)" points="219.77,196.655 219.77,204.003 257.487,181.857 257.487,174.508 			"/>
			<linearGradient id="SVGID_60_" gradientUnits="userSpaceOnUse" x1="160.8252" y1="140.4888" x2="237.8607" y2="234.3044">
				<stop  offset="0.0354" style="stop-color:#FFA98C"/>
				<stop  offset="0.3169" style="stop-color:#FFB892"/>
				<stop  offset="0.8601" style="stop-color:#FEE1A3"/>
				<stop  offset="1" style="stop-color:#FEECA8"/>
			</linearGradient>
			<polygon fill="url(#SVGID_60_)" points="219.791,196.655 219.791,204.003 182.085,182.022 182.085,174.698 			"/>
			<linearGradient id="SVGID_61_" gradientUnits="userSpaceOnUse" x1="244.4688" y1="64.5615" x2="220.4688" y2="171.561">
				<stop  offset="0.0354" style="stop-color:#FFA98C"/>
				<stop  offset="0.3169" style="stop-color:#FFB892"/>
				<stop  offset="0.8601" style="stop-color:#FEE1A3"/>
				<stop  offset="1" style="stop-color:#FEECA8"/>
			</linearGradient>
			<polygon fill="url(#SVGID_61_)" points="182.085,174.698 219.791,196.655 257.487,174.508 219.741,152.528 			"/>
			<polygon fill="#45108A" points="188.022,174.683 219.749,156.004 251.545,174.52 219.784,193.179 			"/>
			<linearGradient id="SVGID_62_" gradientUnits="userSpaceOnUse" x1="213.1973" y1="165.3374" x2="235.5308" y2="196.7543">
				<stop  offset="0" style="stop-color:#25054D"/>
				<stop  offset="1" style="stop-color:#45108A"/>
			</linearGradient>
			<polygon fill="url(#SVGID_62_)" points="219.749,157.504 250.263,175.274 251.545,174.52 219.749,156.004 188.022,174.683 
				189.304,175.429 			"/>
			<polygon fill="#330A66" points="219.749,157.504 250.263,175.274 251.545,174.52 219.749,156.004 			"/>
			<radialGradient id="SVGID_63_" cx="219.7861" cy="185.4321" r="27.8148" gradientUnits="userSpaceOnUse">
				<stop  offset="0.096" style="stop-color:#FFE4A7"/>
				<stop  offset="0.4205" style="stop-color:#F4BE4C"/>
				<stop  offset="0.6717" style="stop-color:#ECA30A"/>
				<stop  offset="1" style="stop-color:#000000"/>
			</radialGradient>
			<polygon fill="url(#SVGID_63_)" points="219.791,196.055 182.598,174.396 182.085,174.698 219.791,196.655 257.487,174.508 
				256.975,174.21 			"/>
		</g>
		<g>
			<path fill="#43E8E1" d="M209.004,182.358l2.168-1.252c-0.577-0.322-1.217-0.687-1.92-1.093l-0.946-0.546l-2.154,1.243
				c-0.295,0.17-0.773,0.17-1.069-0.002l-1.942-1.121c-0.297-0.171-0.298-0.447-0.004-0.617l2.154-1.244l-2.249-1.299
				c-0.296-0.171-0.298-0.447-0.003-0.617l18.632-10.758c0.295-0.17,0.773-0.169,1.07,0.002l2.249,1.299l2.154-1.244
				c0.294-0.17,0.772-0.169,1.069,0.002l1.942,1.122c0.296,0.171,0.298,0.447,0.003,0.617l-2.154,1.244l2.123,1.226
				c0.252,0.146,0.491,0.288,0.717,0.429l2.168-1.251c0.294-0.17,0.773-0.17,1.069,0.002l1.942,1.121
				c0.296,0.171,0.298,0.447,0.003,0.617l-2.396,1.384c0.532,0.473,0.886,0.972,1.06,1.496c0.2,0.592,0.161,1.203-0.118,1.832
				c-0.295,0.663-0.905,1.25-1.832,1.759c-0.748,0.411-1.667,0.721-2.66,0.885c-1.439,0.239-2.86,0.205-4.263-0.103
				c0.858,0.899,1.191,1.779,0.999,2.64c-0.193,0.861-0.859,1.62-1.997,2.277c-0.896,0.517-1.977,0.898-3.241,1.146
				c-1.267,0.247-2.52,0.307-3.76,0.18c-1.196-0.121-2.366-0.439-3.511-0.955l-2.288,1.321c-0.295,0.17-0.773,0.169-1.07-0.002
				l-1.941-1.122C208.711,182.804,208.71,182.528,209.004,182.358z M222.927,168.949l-4.555,2.63l2.623,1.515
				c1.56,0.899,2.551,1.446,2.975,1.64c0.766,0.349,1.539,0.523,2.321,0.525c0.781,0.001,1.49-0.182,2.126-0.549
				c0.609-0.352,0.936-0.735,0.979-1.15c0.042-0.415-0.229-0.838-0.816-1.27c-0.352-0.255-1.47-0.926-3.354-2.014L222.927,168.949z
				 M215.093,173.471l-5.267,3.041l3.705,2.14c1.441,0.832,2.397,1.337,2.865,1.515c0.703,0.281,1.449,0.41,2.24,0.385
				c0.79-0.024,1.535-0.238,2.233-0.642c0.591-0.341,0.949-0.714,1.072-1.118c0.124-0.405,0.007-0.819-0.351-1.242
				c-0.357-0.424-1.446-1.161-3.267-2.212L215.093,173.471z"/>
		</g>
	</g>
	<g>
		<linearGradient id="SVGID_64_" gradientUnits="userSpaceOnUse" x1="208.6455" y1="103.4316" x2="236.2555" y2="165.3859">
			<stop  offset="0" style="stop-color:#25054D"/>
			<stop  offset="1" style="stop-color:#45108A"/>
		</linearGradient>
		<polygon fill="url(#SVGID_64_)" points="183.17,80.482 183.17,118.831 220.888,96.685 220.888,58.336 		"/>
		<polygon fill="#330A66" points="183.19,80.482 183.19,118.831 145.485,96.85 145.485,58.525 		"/>
		<polygon fill="#45108A" points="145.485,58.525 183.19,80.482 220.888,58.336 183.142,36.355 		"/>
		<radialGradient id="SVGID_65_" cx="183.1865" cy="69.2603" r="38.6599" gradientUnits="userSpaceOnUse">
			<stop  offset="0.096" style="stop-color:#45108A"/>
			<stop  offset="0.6717" style="stop-color:#25054D"/>
			<stop  offset="1" style="stop-color:#000000"/>
		</radialGradient>
		<polygon fill="url(#SVGID_65_)" points="183.19,79.882 145.998,58.223 145.485,58.525 183.19,80.482 220.888,58.336 
			220.375,58.038 		"/>
	</g>
	<g>
		<path fill="#BCBCD6" d="M256.991,123.248c-0.095,0.012-0.193,0.021-0.287,0.036l-7.22-3.5c-0.307-1.146-2.117-2.034-4.381-2.123
			l-18.499-8.966l-1.212,2.502l13.982,6.777l-8.942-1.604c-0.556-1.053-2.403-1.832-4.62-1.832c-2.655,0-4.808,1.11-4.808,2.48
			c0,1.177,1.593,2.158,3.724,2.412l-0.604,22.272c-1.819,0.354-3.119,1.253-3.119,2.315c0,1.37,2.152,2.48,4.808,2.48
			s4.808-1.11,4.808-2.48c0-0.193-0.053-0.38-0.134-0.561l26.527-15.398c0.347,0.042,0.703,0.067,1.074,0.067
			c2.082,0,3.838-0.687,4.506-1.642L256.991,123.248z M226.941,140.397l0.571-21.063c0.504-0.099,0.958-0.242,1.364-0.417
			l11.354,2.036c0.132,0.19,0.292,0.373,0.505,0.538l-2.016,1.822c-0.145-0.007-0.284-0.022-0.433-0.022
			c-2.655,0-4.808,1.11-4.808,2.48c0,0.736,0.634,1.391,1.621,1.845L226.941,140.397z M230.25,140.38l7.754-12.143
			c0.096,0.003,0.187,0.015,0.284,0.015c2.655,0,4.808-1.11,4.808-2.48c0-0.616-0.451-1.172-1.171-1.605l1.794-1.621
			c0.33,0.037,0.672,0.06,1.024,0.06c1.15,0,2.191-0.217,3.019-0.564l5.796,2.809c-0.167,0.252-0.277,0.518-0.277,0.799
			c0,0.388,0.188,0.751,0.495,1.077L230.25,140.38z"/>
		<g opacity="0.7">
			
				<rect x="227.77" y="85.435" transform="matrix(0.9309 0.3652 -0.3652 0.9309 50.9328 -77.1773)" opacity="0.7" fill="#8770B8" width="3.401" height="21.216"/>
			
				<rect x="219.662" y="94.942" transform="matrix(-0.3653 0.9309 -0.9309 -0.3653 402.0527 -82.8477)" opacity="0.5" fill="#8770B8" width="19.217" height="1.401"/>
		</g>
		<g opacity="0.7">
			<path opacity="0.7" fill="#8770B8" d="M216.345,122.368c-0.698,0-1.34-0.432-1.592-1.105l-7-18.75
				c-0.144-0.386-0.143-0.81,0.002-1.195l6.5-17.25c0.028-0.075,0.063-0.148,0.101-0.218l9.75-17.75l2.98,1.637l-9.692,17.644
				l-6.232,16.541l6.283,16.828l20.44-3.59l0.588,3.35l-21.833,3.834C216.541,122.359,216.442,122.368,216.345,122.368z"/>
			<path opacity="0.5" fill="#8770B8" d="M216.145,120.968c-0.29,0-0.553-0.183-0.655-0.456l-7-18.749
				c-0.059-0.158-0.059-0.334,0.002-0.493l6.499-17.249c0.013-0.033,0.027-0.064,0.044-0.095l9.267-16.869l1.227,0.675l-9.245,16.83
				l-6.39,16.957l6.706,17.959l20.273-3.561l0.242,1.38l-20.848,3.66C216.23,120.964,216.188,120.968,216.145,120.968z"/>
		</g>
		<g opacity="0.7">
			<path opacity="0.7" fill="#8770B8" d="M244.347,99.368c-0.45,0-0.897-0.178-1.229-0.525L232.563,87.81l-15.772-1.281l0.275-3.389
				l16.417,1.334c0.415,0.033,0.803,0.219,1.091,0.52l9.922,10.373l12.785-10.273l2.129,2.65l-14,11.25
				C245.098,99.244,244.722,99.368,244.347,99.368z"/>
			<path opacity="0.5" fill="#8770B8" d="M244.146,97.968c-0.193,0-0.373-0.077-0.506-0.216l-10.817-11.309l-15.154-1.231
				l0.113-1.395l15.42,1.253c0.171,0.014,0.33,0.09,0.449,0.214l10.556,11.036l12.721-10.222l0.877,1.091l-13.221,10.624
				C244.425,97.941,244.258,97.968,244.146,97.968z"/>
		</g>
		<g opacity="0.7">
			<path opacity="0.7" fill="#8770B8" d="M256.937,119.369l-12.044-17.851l-5.096,15.836l-3.236-1.041l6.167-19.167
				c0.199-0.62,0.734-1.071,1.379-1.162c0.65-0.093,1.284,0.193,1.648,0.732l14,20.75L256.937,119.369z"/>
			<path opacity="0.5" fill="#8770B8" d="M244.371,98.854l-5.42,16.843l-1.333-0.429l5.861-18.214
				c0.083-0.258,0.3-0.441,0.566-0.479c0.037-0.006,0.071-0.008,0.105-0.008c0.229,0,0.444,0.115,0.575,0.309l13.44,19.921
				l-1.161,0.783L244.371,98.854z"/>
		</g>
		<g opacity="0.7">
			<path opacity="0.7" fill="#8770B8" d="M225.596,107.618c-0.213,0-0.427-0.04-0.629-0.121c-0.428-0.17-0.769-0.507-0.943-0.933
				l-8.202-19.952l-22.361,1.501c-0.793,0.07-1.5-0.436-1.735-1.185c-0.236-0.747,0.07-1.56,0.741-1.966l32.25-19.5l1.76,2.91
				l-26.264,15.88l16.603-1.115c0.743-0.051,1.408,0.374,1.687,1.05l7.999,19.459l17.481-7.864l1.395,3.102l-19.083,8.583
				C226.071,107.568,225.834,107.618,225.596,107.618z"/>
			<path opacity="0.5" fill="#8770B8" d="M225.396,106.218c-0.089,0-0.175-0.016-0.257-0.049c-0.178-0.071-0.319-0.211-0.391-0.384
				l-8.476-20.619l-23.091,1.55c-0.36,0-0.611-0.196-0.703-0.487c-0.099-0.31,0.027-0.643,0.305-0.811l31.395-18.982l0.725,1.199
				l-25.408,15.362l0.585,1.854l16.607-1.115c0.336,0,0.58,0.166,0.689,0.433l8.392,20.415l17.512-7.878l0.574,1.277l-18.171,8.174
				C225.592,106.197,225.495,106.218,225.396,106.218z"/>
		</g>
		<g opacity="0.7">
			<path opacity="0.7" fill="#8770B8" d="M225.596,139.868c-0.302,0-0.603-0.08-0.871-0.24l-32.25-19.25
				c-0.514-0.307-0.829-0.861-0.829-1.46v-32.5h3.4v31.535l30.545,18.232l28.891-17.422l-29.492-11.257l1.213-3.175l32.75,12.5
				c0.607,0.231,1.029,0.789,1.087,1.437s-0.259,1.271-0.815,1.607l-32.75,19.75C226.204,139.786,225.899,139.868,225.596,139.868z"
				/>
			<path opacity="0.5" fill="#8770B8" d="M225.396,138.468c-0.126,0-0.25-0.034-0.359-0.099l-32.249-19.25
				c-0.211-0.126-0.342-0.356-0.342-0.602v-31.5h1.4v31.103l31.548,18.832l31.16-18.792l-30.474-11.631l0.499-1.308l31.816,12.144
				c0.248,0.095,0.424,0.326,0.447,0.591s-0.108,0.525-0.336,0.662l-32.75,19.75C225.648,138.433,225.522,138.468,225.396,138.468z"
				/>
		</g>
		<g opacity="0.7">
			<path opacity="0.7" fill="#8770B8" d="M257.457,87.867l-27.794-17.054l5.365,14.946l-3.199,1.148l-7-19.5
				c-0.244-0.679-0.032-1.438,0.527-1.894c0.559-0.455,1.346-0.508,1.961-0.13l31.917,19.583L257.457,87.867z"/>
			<path opacity="0.5" fill="#8770B8" d="M227.561,68.072l5.988,16.684l-1.316,0.473L225.57,66.67
				c-0.101-0.279-0.014-0.593,0.217-0.78c0.125-0.101,0.281-0.156,0.441-0.156c0.129,0,0.255,0.035,0.365,0.104l31.065,19.061
				l-0.732,1.194L227.561,68.072z"/>
		</g>
		<g opacity="0.7">
			<path opacity="0.7" fill="#8770B8" d="M193.981,120.495l-1.271-3.154l31.186-12.57V67.084h3.4v38.834
				c0,0.693-0.422,1.317-1.064,1.577L193.981,120.495z"/>
			<path opacity="0.5" fill="#8770B8" d="M193.812,117.494l30.884-12.449V67.684h1.4v37.834c0,0.287-0.173,0.542-0.439,0.65
				l-31.321,12.625L193.812,117.494z"/>
		</g>
		<g opacity="0.7">
			
				<rect x="189.858" y="92.926" transform="matrix(0.6942 0.7198 -0.7198 0.6942 129.6563 -115.9284)" fill="#8770B8" width="22.808" height="3.399"/>
			
				<rect x="200.362" y="83.822" transform="matrix(-0.7202 0.6937 -0.6937 -0.7202 411.2418 22.6097)" opacity="0.5" fill="#8770B8" width="1.399" height="20.807"/>
		</g>
		<g opacity="0.7">
			<path opacity="0.7" fill="#8770B8" d="M217.786,121.571l-2.881-1.807l9.25-14.75c0.447-0.715,1.353-0.993,2.126-0.652l14.75,6.5
				l-1.371,3.111l-13.405-5.907L217.786,121.571z"/>
			<path opacity="0.5" fill="#8770B8" d="M216.084,119.049l8.719-13.903c0.128-0.206,0.35-0.328,0.593-0.328
				c0.097,0,0.192,0.02,0.282,0.06l13.835,6.097l-0.564,1.281l-13.281-5.853l-8.397,13.39L216.084,119.049z"/>
		</g>
		<g opacity="0.7">
			<path opacity="0.7" fill="#8770B8" d="M225.596,139.868c-0.01,0-0.02,0-0.029,0c-0.619-0.011-1.184-0.357-1.474-0.906
				l-8.812-16.669l-22.064-1.679c-0.653-0.05-1.22-0.47-1.456-1.081c-0.236-0.61-0.102-1.303,0.347-1.779l16-17l2.477,2.33
				l-13.563,14.41l19.453,1.479c0.582,0.045,1.102,0.385,1.374,0.901l7.807,14.769l13.215-23.07c0.402-0.7,1.24-1.02,2.007-0.77
				l15.769,5.182V87.868h-23.3v-3.4h25c0.938,0,1.7,0.762,1.7,1.7v32.166c0,0.545-0.262,1.058-0.703,1.377
				c-0.443,0.32-1.013,0.405-1.528,0.238l-16.683-5.483l-14.061,24.546C226.768,139.542,226.204,139.868,225.596,139.868z"/>
			<path opacity="0.5" fill="#8770B8" d="M225.366,138.468c-0.237-0.004-0.47-0.147-0.59-0.373l-9.069-17.159l-22.614-1.721
				c-0.268-0.021-0.503-0.195-0.6-0.444c-0.097-0.251-0.041-0.539,0.143-0.733l15.314-16.272l1.02,0.96l-14.311,15.206l21.539,1.638
				c0.241,0.019,0.453,0.157,0.565,0.371l8.656,16.376l14.118-24.647c0.124-0.217,0.358-0.352,0.609-0.352
				c0.074,0,0.148,0.012,0.22,0.035l17.078,5.612V86.468h-23.3v-1.4h24c0.386,0,0.7,0.314,0.7,0.7v32.166
				c0,0.224-0.108,0.436-0.289,0.566c-0.12,0.087-0.263,0.133-0.413,0.133c-0.075,0-0.149-0.012-0.221-0.035l-17.454-5.737
				l-14.466,25.255c-0.124,0.217-0.357,0.353-0.607,0.353H225.366z"/>
		</g>
		<radialGradient id="SVGID_66_" cx="191.6514" cy="117.2231" r="7.0609" gradientUnits="userSpaceOnUse">
			<stop  offset="0.1515" style="stop-color:#5213A6"/>
			<stop  offset="0.2544" style="stop-color:#45108A"/>
			<stop  offset="0.7959" style="stop-color:#25054D"/>
			<stop  offset="0.9694" style="stop-color:#2D085C"/>
		</radialGradient>
		<circle fill="url(#SVGID_66_)" cx="193.346" cy="118.917" r="5.083"/>
		<radialGradient id="SVGID_67_" cx="191.6514" cy="84.7231" r="7.0609" gradientUnits="userSpaceOnUse">
			<stop  offset="0.1515" style="stop-color:#5213A6"/>
			<stop  offset="0.2544" style="stop-color:#45108A"/>
			<stop  offset="0.7959" style="stop-color:#25054D"/>
			<stop  offset="0.9694" style="stop-color:#2D085C"/>
		</radialGradient>
		<circle fill="url(#SVGID_67_)" cx="193.346" cy="86.417" r="5.083"/>
		<radialGradient id="SVGID_68_" cx="223.9014" cy="104.2231" r="7.0609" gradientUnits="userSpaceOnUse">
			<stop  offset="0.1515" style="stop-color:#5213A6"/>
			<stop  offset="0.2544" style="stop-color:#45108A"/>
			<stop  offset="0.7959" style="stop-color:#25054D"/>
			<stop  offset="0.9694" style="stop-color:#2D085C"/>
		</radialGradient>
		<circle fill="url(#SVGID_68_)" cx="225.596" cy="105.917" r="5.083"/>
		<radialGradient id="SVGID_69_" cx="214.6514" cy="118.9731" r="7.0609" gradientUnits="userSpaceOnUse">
			<stop  offset="0.1515" style="stop-color:#5213A6"/>
			<stop  offset="0.2544" style="stop-color:#45108A"/>
			<stop  offset="0.7959" style="stop-color:#25054D"/>
			<stop  offset="0.9694" style="stop-color:#2D085C"/>
		</radialGradient>
		<circle fill="url(#SVGID_69_)" cx="216.346" cy="120.667" r="5.083"/>
		<radialGradient id="SVGID_70_" cx="256.6514" cy="84.7231" r="7.0609" gradientUnits="userSpaceOnUse">
			<stop  offset="0.1515" style="stop-color:#5213A6"/>
			<stop  offset="0.2544" style="stop-color:#45108A"/>
			<stop  offset="0.7959" style="stop-color:#25054D"/>
			<stop  offset="0.9694" style="stop-color:#2D085C"/>
		</radialGradient>
		<circle fill="url(#SVGID_70_)" cx="258.346" cy="86.417" r="5.083"/>
		<radialGradient id="SVGID_71_" cx="256.6514" cy="116.7231" r="7.0609" gradientUnits="userSpaceOnUse">
			<stop  offset="0.1515" style="stop-color:#5213A6"/>
			<stop  offset="0.2544" style="stop-color:#45108A"/>
			<stop  offset="0.7959" style="stop-color:#25054D"/>
			<stop  offset="0.9694" style="stop-color:#2D085C"/>
		</radialGradient>
		<circle fill="url(#SVGID_71_)" cx="258.346" cy="118.417" r="5.083"/>
		<radialGradient id="SVGID_72_" cx="223.9014" cy="136.4731" r="7.0607" gradientUnits="userSpaceOnUse">
			<stop  offset="0.1515" style="stop-color:#5213A6"/>
			<stop  offset="0.2544" style="stop-color:#45108A"/>
			<stop  offset="0.7959" style="stop-color:#25054D"/>
			<stop  offset="0.9694" style="stop-color:#2D085C"/>
		</radialGradient>
		<circle fill="url(#SVGID_72_)" cx="225.596" cy="138.167" r="5.083"/>
		<radialGradient id="SVGID_73_" cx="223.9014" cy="65.2231" r="7.0609" gradientUnits="userSpaceOnUse">
			<stop  offset="0.1515" style="stop-color:#5213A6"/>
			<stop  offset="0.2544" style="stop-color:#45108A"/>
			<stop  offset="0.7959" style="stop-color:#25054D"/>
			<stop  offset="0.9694" style="stop-color:#2D085C"/>
		</radialGradient>
		<circle fill="url(#SVGID_73_)" cx="225.596" cy="66.917" r="5.083"/>
		<radialGradient id="SVGID_74_" cx="231.6514" cy="84.4731" r="7.0609" gradientUnits="userSpaceOnUse">
			<stop  offset="0.1515" style="stop-color:#5213A6"/>
			<stop  offset="0.2544" style="stop-color:#45108A"/>
			<stop  offset="0.7959" style="stop-color:#25054D"/>
			<stop  offset="0.9694" style="stop-color:#2D085C"/>
		</radialGradient>
		<circle fill="url(#SVGID_74_)" cx="233.346" cy="86.167" r="5.083"/>
		<radialGradient id="SVGID_75_" cx="242.6514" cy="95.9731" r="7.0609" gradientUnits="userSpaceOnUse">
			<stop  offset="0.1515" style="stop-color:#5213A6"/>
			<stop  offset="0.2544" style="stop-color:#45108A"/>
			<stop  offset="0.7959" style="stop-color:#25054D"/>
			<stop  offset="0.9694" style="stop-color:#2D085C"/>
		</radialGradient>
		<circle fill="url(#SVGID_75_)" cx="244.346" cy="97.667" r="5.083"/>
		<radialGradient id="SVGID_76_" cx="236.5264" cy="114.7231" r="7.0609" gradientUnits="userSpaceOnUse">
			<stop  offset="0.1515" style="stop-color:#5213A6"/>
			<stop  offset="0.2544" style="stop-color:#45108A"/>
			<stop  offset="0.7959" style="stop-color:#25054D"/>
			<stop  offset="0.9694" style="stop-color:#2D085C"/>
		</radialGradient>
		<circle fill="url(#SVGID_76_)" cx="238.221" cy="116.417" r="5.083"/>
		<radialGradient id="SVGID_77_" cx="207.6514" cy="100.2231" r="7.0609" gradientUnits="userSpaceOnUse">
			<stop  offset="0.1515" style="stop-color:#5213A6"/>
			<stop  offset="0.2544" style="stop-color:#45108A"/>
			<stop  offset="0.7959" style="stop-color:#25054D"/>
			<stop  offset="0.9694" style="stop-color:#2D085C"/>
		</radialGradient>
		<circle fill="url(#SVGID_77_)" cx="209.346" cy="101.917" r="5.083"/>
		<radialGradient id="SVGID_78_" cx="214.1514" cy="82.9731" r="7.0609" gradientUnits="userSpaceOnUse">
			<stop  offset="0.1515" style="stop-color:#5213A6"/>
			<stop  offset="0.2544" style="stop-color:#45108A"/>
			<stop  offset="0.7959" style="stop-color:#25054D"/>
			<stop  offset="0.9694" style="stop-color:#2D085C"/>
		</radialGradient>
		<circle fill="url(#SVGID_78_)" cx="215.846" cy="84.667" r="5.083"/>
	</g>
	<g>
		<linearGradient id="SVGID_79_" gradientUnits="userSpaceOnUse" x1="122.2334" y1="103.8188" x2="149.8427" y2="165.7716">
			<stop  offset="0" style="stop-color:#25054D"/>
			<stop  offset="1" style="stop-color:#45108A"/>
		</linearGradient>
		<polygon fill="url(#SVGID_79_)" points="96.758,80.87 96.758,119.219 134.476,97.073 134.476,58.724 		"/>
		<polygon fill="#330A66" points="96.778,80.87 96.778,119.219 59.073,97.238 59.073,58.913 		"/>
		<polygon fill="#45108A" points="59.073,58.913 96.778,80.87 134.476,58.724 96.729,36.743 		"/>
		<radialGradient id="SVGID_80_" cx="96.7744" cy="69.6479" r="38.6601" gradientUnits="userSpaceOnUse">
			<stop  offset="0.096" style="stop-color:#45108A"/>
			<stop  offset="0.6717" style="stop-color:#25054D"/>
			<stop  offset="1" style="stop-color:#000000"/>
		</radialGradient>
		<polygon fill="url(#SVGID_80_)" points="96.778,80.271 59.586,58.611 59.073,58.913 96.778,80.871 134.476,58.724 133.963,58.426 
					"/>
	</g>
	<g>
		<linearGradient id="SVGID_81_" gradientUnits="userSpaceOnUse" x1="163.8389" y1="128.8403" x2="191.4482" y2="190.7931">
			<stop  offset="0" style="stop-color:#25054D"/>
			<stop  offset="1" style="stop-color:#45108A"/>
		</linearGradient>
		<polygon fill="url(#SVGID_81_)" points="138.363,105.892 138.363,144.241 176.081,122.094 176.081,83.746 		"/>
		<polygon fill="#330A66" points="138.385,105.892 138.385,144.241 100.679,122.26 100.679,83.935 		"/>
		<polygon fill="#45108A" points="100.679,83.935 138.385,105.892 176.081,83.746 138.335,61.765 		"/>
		<radialGradient id="SVGID_82_" cx="138.3809" cy="94.6694" r="38.6591" gradientUnits="userSpaceOnUse">
			<stop  offset="0.096" style="stop-color:#45108A"/>
			<stop  offset="0.6717" style="stop-color:#25054D"/>
			<stop  offset="1" style="stop-color:#000000"/>
		</radialGradient>
		<polygon fill="url(#SVGID_82_)" points="138.385,105.292 101.191,83.633 100.68,83.935 138.385,105.892 176.081,83.746 
			175.568,83.447 		"/>
	</g>
	<g>
		<linearGradient id="SVGID_83_" gradientUnits="userSpaceOnUse" x1="207.5791" y1="153.8618" x2="235.1884" y2="215.8146">
			<stop  offset="0" style="stop-color:#25054D"/>
			<stop  offset="1" style="stop-color:#45108A"/>
		</linearGradient>
		<polygon fill="url(#SVGID_83_)" points="182.104,130.914 182.104,169.262 219.82,147.116 219.82,108.768 		"/>
		<polygon fill="#330A66" points="182.124,130.914 182.124,169.262 144.419,147.282 144.419,108.957 		"/>
		<polygon fill="#45108A" points="144.419,108.957 182.124,130.914 219.82,108.768 182.074,86.787 		"/>
		<radialGradient id="SVGID_84_" cx="182.1201" cy="119.6914" r="41.4895" gradientUnits="userSpaceOnUse">
			<stop  offset="0.096" style="stop-color:#45108A"/>
			<stop  offset="0.6717" style="stop-color:#25054D"/>
			<stop  offset="1" style="stop-color:#000000"/>
		</radialGradient>
		<polygon fill="url(#SVGID_84_)" points="182.124,130.314 144.931,108.655 144.419,108.957 182.124,130.914 219.821,108.768 
			219.308,108.469 		"/>
		<radialGradient id="SVGID_85_" cx="192.0957" cy="186.5044" r="92.5979" gradientUnits="userSpaceOnUse">
			<stop  offset="0" style="stop-color:#FDD65B"/>
			<stop  offset="0.2056" style="stop-color:#B19540"/>
			<stop  offset="0.4744" style="stop-color:#52461E"/>
			<stop  offset="0.6629" style="stop-color:#171308"/>
			<stop  offset="0.7525" style="stop-color:#000000"/>
		</radialGradient>
		<polygon opacity="0.2" fill="url(#SVGID_85_)" points="182.479,130.694 182.104,130.914 182.104,134.163 208.937,149.789 
			182.104,165.543 182.104,169.262 215.27,149.789 		"/>
		<radialGradient id="SVGID_86_" cx="178.7627" cy="169.6704" r="63.7353" gradientUnits="userSpaceOnUse">
			<stop  offset="0" style="stop-color:#43E8E1"/>
			<stop  offset="0.1619" style="stop-color:#33B1AB"/>
			<stop  offset="0.4524" style="stop-color:#185250"/>
			<stop  offset="0.6557" style="stop-color:#071716"/>
			<stop  offset="0.7525" style="stop-color:#000000"/>
		</radialGradient>
		<path opacity="0.2" fill="url(#SVGID_86_)" d="M182.104,159.881l17.173-9.915c0.295-0.17,0.293-0.446-0.003-0.617l-2.249-1.299
			l2.154-1.244c0.295-0.17,0.293-0.446-0.003-0.617l-1.943-1.121c-0.296-0.171-0.774-0.173-1.069-0.002l-2.154,1.243l-0.946-0.546
			c-0.703-0.406-1.343-0.771-1.92-1.093l2.168-1.252c0.294-0.17,0.293-0.446-0.003-0.617l-1.942-1.122
			c-0.297-0.171-0.775-0.172-1.07-0.002l-2.288,1.321c-1.145-0.516-2.314-0.834-3.51-0.955c-0.793-0.081-1.591-0.077-2.394-0.006
			v3.517c0.503-0.198,1.027-0.313,1.575-0.329c0.79-0.025,1.537,0.104,2.239,0.385c0.469,0.178,1.424,0.683,2.865,1.515l3.705,2.14
			l-5.267,3.041l-3.232-1.866c-0.758-0.438-1.382-0.817-1.886-1.146v3.844l1.839,1.062l-1.839,1.063V159.881z"/>
	</g>
	<g>
		<linearGradient id="SVGID_87_" gradientUnits="userSpaceOnUse" x1="78.4941" y1="129.229" x2="106.1041" y2="191.1833">
			<stop  offset="0" style="stop-color:#25054D"/>
			<stop  offset="1" style="stop-color:#45108A"/>
		</linearGradient>
		<polygon fill="url(#SVGID_87_)" points="53.019,106.28 53.019,144.628 90.736,122.482 90.736,84.134 		"/>
		<polygon fill="#330A66" points="53.039,106.28 53.039,144.628 15.334,122.647 15.334,84.323 		"/>
		<polygon fill="#45108A" points="15.334,84.323 53.039,106.28 90.736,84.134 52.99,62.153 		"/>
		<radialGradient id="SVGID_88_" cx="53.0352" cy="95.0581" r="38.659" gradientUnits="userSpaceOnUse">
			<stop  offset="0.096" style="stop-color:#45108A"/>
			<stop  offset="0.6717" style="stop-color:#25054D"/>
			<stop  offset="1" style="stop-color:#000000"/>
		</radialGradient>
		<polygon fill="url(#SVGID_88_)" points="53.039,105.68 15.846,84.021 15.334,84.323 53.039,106.28 90.735,84.134 90.223,83.835 		
			"/>
	</g>
	<g>
		<linearGradient id="SVGID_89_" gradientUnits="userSpaceOnUse" x1="121.167" y1="154.2505" x2="148.7763" y2="216.2033">
			<stop  offset="0" style="stop-color:#25054D"/>
			<stop  offset="1" style="stop-color:#45108A"/>
		</linearGradient>
		<polygon fill="url(#SVGID_89_)" points="95.691,131.301 95.691,169.65 133.408,147.504 133.408,109.156 		"/>
		<polygon fill="#330A66" points="95.712,131.301 95.712,169.65 58.006,147.669 58.006,109.344 		"/>
		<polygon fill="#45108A" points="58.006,109.344 95.712,131.301 133.408,109.156 95.662,87.175 		"/>
	</g>
	<g>
		<g>
			<linearGradient id="SVGID_90_" gradientUnits="userSpaceOnUse" x1="107.9004" y1="151.3032" x2="195.5221" y2="125.0663">
				<stop  offset="0" style="stop-color:#25054D"/>
				<stop  offset="1" style="stop-color:#45108A"/>
			</linearGradient>
			<polygon fill="url(#SVGID_90_)" points="95.736,151.056 95.736,169.52 133.384,147.562 133.384,129.097 			"/>
			<g>
				<linearGradient id="SVGID_91_" gradientUnits="userSpaceOnUse" x1="98.0391" y1="149.3091" x2="131.0811" y2="149.3091">
					<stop  offset="0" style="stop-color:#25054D"/>
					<stop  offset="1" style="stop-color:#45108A"/>
				</linearGradient>
				<path fill="url(#SVGID_91_)" d="M98.039,165.51v-13.132l33.042-19.271v13.133L98.039,165.51z M99.816,153.4v9.017l29.487-17.198
					v-9.018L99.816,153.4z"/>
			</g>
			<linearGradient id="SVGID_92_" gradientUnits="userSpaceOnUse" x1="20.4746" y1="161.9331" x2="135.7763" y2="136.0862">
				<stop  offset="0" style="stop-color:#25054D"/>
				<stop  offset="1" style="stop-color:#45108A"/>
			</linearGradient>
			<polygon fill="url(#SVGID_92_)" points="95.757,151.056 95.757,169.52 57.984,147.5 57.984,129.059 			"/>
			<polygon fill="#25054D" points="61.175,145.666 61.175,134.611 92.565,152.89 92.565,163.965 			"/>
			<g>
				<linearGradient id="SVGID_93_" gradientUnits="userSpaceOnUse" x1="60.2861" y1="149.2886" x2="93.4541" y2="149.2886">
					<stop  offset="0" style="stop-color:#25054D"/>
					<stop  offset="1" style="stop-color:#45108A"/>
				</linearGradient>
				<path fill="url(#SVGID_93_)" d="M93.454,165.512l-33.168-19.336v-13.111l33.168,19.314V165.512z M62.063,145.155l29.613,17.264
					v-9.018l-29.613-17.244V145.155z"/>
			</g>
			<g>
				<g>
					<polygon fill="#2AF6FF" points="88.276,154.009 89.491,154.71 89.491,153.316 88.276,152.615 					"/>
					<polygon fill="#2AF6FF" points="85.994,152.691 87.209,153.393 87.209,151.999 85.994,151.297 					"/>
					<polygon fill="#4B61B8" points="83.711,151.374 84.927,152.075 84.927,150.681 83.711,149.979 					"/>
					<polygon fill="#25054D" points="81.429,150.056 82.644,150.757 82.644,149.363 81.429,148.662 					"/>
					<polygon fill="#25054D" points="79.146,148.738 80.361,149.44 80.361,148.045 79.146,147.344 					"/>
					<polygon fill="#4B61B8" points="76.864,147.42 78.079,148.122 78.079,146.728 76.864,146.026 					"/>
					<polygon fill="#4B61B8" points="74.582,146.103 75.797,146.804 75.797,145.41 74.582,144.708 					"/>
					<polygon fill="#4B61B8" points="72.3,144.785 73.515,145.486 73.515,144.092 72.3,143.39 					"/>
					<polygon fill="#25054D" points="70.018,143.467 71.232,144.168 71.232,142.775 70.018,142.073 					"/>
					<polygon fill="#4B61B8" points="67.734,142.149 68.949,142.851 68.949,141.457 67.734,140.755 					"/>
					<polygon fill="#2AF6FF" points="65.452,140.832 66.667,141.533 66.667,140.139 65.452,139.437 					"/>
					<polygon fill="#2AF6FF" points="63.17,139.514 64.385,140.215 64.385,138.821 63.17,138.12 					"/>
				</g>
				<g>
					<polygon fill="#4B61B8" points="88.276,156.487 89.491,157.188 89.491,155.794 88.276,155.093 					"/>
					<polygon fill="#2AF6FF" points="85.994,155.169 87.209,155.871 87.209,154.476 85.994,153.775 					"/>
					<polygon fill="#2AF6FF" points="83.711,153.851 84.927,154.553 84.927,153.159 83.711,152.458 					"/>
					<polygon fill="#25054D" points="81.429,152.534 82.644,153.235 82.644,151.841 81.429,151.139 					"/>
					<polygon fill="#2AF6FF" points="79.146,151.216 80.361,151.917 80.361,150.523 79.146,149.822 					"/>
					<polygon fill="#2AF6FF" points="76.864,149.898 78.079,150.6 78.079,149.206 76.864,148.504 					"/>
					<polygon fill="#2AF6FF" points="74.582,148.581 75.797,149.282 75.797,147.888 74.582,147.186 					"/>
					<polygon fill="#4B61B8" points="72.3,147.263 73.515,147.964 73.515,146.57 72.3,145.869 					"/>
					<polygon fill="#4B61B8" points="70.018,145.945 71.232,146.647 71.232,145.252 70.018,144.551 					"/>
					<polygon fill="#4B61B8" points="67.734,144.627 68.949,145.329 68.949,143.934 67.734,143.233 					"/>
					<polygon fill="#4B61B8" points="65.452,143.309 66.667,144.011 66.667,142.617 65.452,141.916 					"/>
					<polygon fill="#4B61B8" points="63.17,141.992 64.385,142.693 64.385,141.299 63.17,140.597 					"/>
				</g>
			</g>
			<g>
				<g>
					<polygon fill="#2AF6FF" points="88.276,158.946 89.491,159.647 89.491,158.252 88.276,157.551 					"/>
					<polygon fill="#4B61B8" points="85.994,157.627 87.209,158.33 87.209,156.935 85.994,156.234 					"/>
					<polygon fill="#4B61B8" points="83.711,156.31 84.927,157.012 84.927,155.618 83.711,154.916 					"/>
					<polygon fill="#4B61B8" points="81.429,154.993 82.644,155.694 82.644,154.299 81.429,153.598 					"/>
					<polygon fill="#4B61B8" points="79.146,153.674 80.361,154.376 80.361,152.982 79.146,152.281 					"/>
					<polygon fill="#4B61B8" points="76.864,152.357 78.079,153.058 78.079,151.665 76.864,150.962 					"/>
					<polygon fill="#25054D" points="74.582,151.04 75.797,151.741 75.797,150.346 74.582,149.645 					"/>
					<polygon fill="#2AF6FF" points="72.3,149.721 73.515,150.423 73.515,149.029 72.3,148.328 					"/>
					<polygon fill="#4B61B8" points="70.018,148.404 71.232,149.105 71.232,147.711 70.018,147.009 					"/>
					<polygon fill="#4B61B8" points="67.734,147.086 68.949,147.788 68.949,146.393 67.734,145.692 					"/>
					<polygon fill="#2AF6FF" points="65.452,145.768 66.667,146.469 66.667,145.076 65.452,144.374 					"/>
					<polygon fill="#2AF6FF" points="63.17,144.451 64.385,145.152 64.385,143.757 63.17,143.056 					"/>
				</g>
			</g>
			<g>
				<g>
					<polygon fill="#2AF6FF" points="102.905,154.009 101.69,154.71 101.69,153.316 102.905,152.615 					"/>
					<polygon fill="#25054D" points="105.188,152.691 103.973,153.393 103.973,151.999 105.188,151.297 					"/>
					<polygon fill="#4B61B8" points="107.471,151.374 106.256,152.075 106.256,150.681 107.471,149.979 					"/>
					<polygon fill="#25054D" points="109.753,150.056 108.538,150.757 108.538,149.363 109.753,148.662 					"/>
					<polygon fill="#25054D" points="112.035,148.738 110.82,149.44 110.82,148.045 112.035,147.344 					"/>
					<polygon fill="#4B61B8" points="114.317,147.42 113.103,148.122 113.103,146.728 114.317,146.026 					"/>
					<polygon fill="#4B61B8" points="116.601,146.103 115.385,146.804 115.385,145.41 116.601,144.708 					"/>
					<polygon fill="#4B61B8" points="118.883,144.785 117.668,145.486 117.668,144.092 118.883,143.39 					"/>
					<polygon fill="#25054D" points="121.165,143.467 119.95,144.168 119.95,142.775 121.165,142.073 					"/>
					<polygon fill="#25054D" points="123.447,142.149 122.232,142.851 122.232,141.457 123.447,140.755 					"/>
					<polygon fill="#2AF6FF" points="125.729,140.832 124.515,141.533 124.515,140.139 125.729,139.437 					"/>
					<polygon fill="#2AF6FF" points="128.012,139.514 126.797,140.215 126.797,138.821 128.012,138.12 					"/>
				</g>
				<g>
					<polygon fill="#4B61B8" points="102.905,156.487 101.69,157.188 101.69,155.794 102.905,155.093 					"/>
					<polygon fill="#25054D" points="105.188,155.169 103.973,155.871 103.973,154.476 105.188,153.775 					"/>
					<polygon fill="#2AF6FF" points="107.471,153.851 106.256,154.553 106.256,153.159 107.471,152.458 					"/>
					<polygon fill="#25054D" points="109.753,152.534 108.538,153.235 108.538,151.841 109.753,151.139 					"/>
					<polygon fill="#2AF6FF" points="112.035,151.216 110.82,151.917 110.82,150.523 112.035,149.822 					"/>
					<polygon fill="#2AF6FF" points="114.317,149.898 113.103,150.6 113.103,149.206 114.317,148.504 					"/>
					<polygon fill="#2AF6FF" points="116.601,148.581 115.385,149.282 115.385,147.888 116.601,147.186 					"/>
					<polygon fill="#4B61B8" points="118.883,147.263 117.668,147.964 117.668,146.57 118.883,145.869 					"/>
					<polygon fill="#4B61B8" points="121.165,145.945 119.95,146.647 119.95,145.252 121.165,144.551 					"/>
					<polygon fill="#4B61B8" points="123.447,144.627 122.232,145.329 122.232,143.934 123.447,143.233 					"/>
					<polygon fill="#4B61B8" points="125.729,143.309 124.515,144.011 124.515,142.617 125.729,141.916 					"/>
					<polygon fill="#4B61B8" points="128.012,141.992 126.797,142.693 126.797,141.299 128.012,140.597 					"/>
				</g>
			</g>
			<g>
				<g>
					<polygon fill="#2AF6FF" points="102.905,158.946 101.69,159.647 101.69,158.252 102.905,157.551 					"/>
					<polygon fill="#4B61B8" points="105.188,157.627 103.973,158.33 103.973,156.935 105.188,156.234 					"/>
					<polygon fill="#4B61B8" points="107.471,156.31 106.256,157.012 106.256,155.618 107.471,154.916 					"/>
					<polygon fill="#4B61B8" points="109.753,154.993 108.538,155.694 108.538,154.299 109.753,153.598 					"/>
					<polygon fill="#4B61B8" points="112.035,153.674 110.82,154.376 110.82,152.982 112.035,152.281 					"/>
					<polygon fill="#4B61B8" points="114.317,152.357 113.103,153.058 113.103,151.665 114.317,150.962 					"/>
					<polygon fill="#25054D" points="116.601,151.04 115.385,151.741 115.385,150.346 116.601,149.645 					"/>
					<polygon fill="#2AF6FF" points="118.883,149.721 117.668,150.423 117.668,149.029 118.883,148.328 					"/>
					<polygon fill="#4B61B8" points="121.165,148.404 119.95,149.105 119.95,147.711 121.165,147.009 					"/>
					<polygon fill="#4B61B8" points="123.447,147.086 122.232,147.788 122.232,146.393 123.447,145.692 					"/>
					<polygon fill="#4B61B8" points="125.729,145.768 124.515,146.469 124.515,145.076 125.729,144.374 					"/>
					<polygon fill="#2AF6FF" points="128.012,144.451 126.797,145.152 126.797,143.757 128.012,143.056 					"/>
				</g>
			</g>
			<linearGradient id="SVGID_94_" gradientUnits="userSpaceOnUse" x1="134.9375" y1="54.2686" x2="92.7109" y2="134.7438">
				<stop  offset="0" style="stop-color:#25054D"/>
				<stop  offset="1" style="stop-color:#45108A"/>
			</linearGradient>
			<polygon fill="url(#SVGID_94_)" points="57.984,129.059 95.757,151.056 133.384,129.097 95.57,107.077 			"/>
		</g>
		<g>
			<linearGradient id="SVGID_95_" gradientUnits="userSpaceOnUse" x1="89.5127" y1="144.0103" x2="165.1279" y2="121.3685">
				<stop  offset="0.0303" style="stop-color:#7C1DC9"/>
				<stop  offset="0.2138" style="stop-color:#6E41D2"/>
				<stop  offset="0.6184" style="stop-color:#4C9BE8"/>
				<stop  offset="1" style="stop-color:#2AF6FF"/>
			</linearGradient>
			<polygon fill="url(#SVGID_95_)" points="95.732,144.034 95.732,150.19 130.714,129.788 130.714,123.63 			"/>
			<linearGradient id="SVGID_96_" gradientUnits="userSpaceOnUse" x1="29.5605" y1="147.7964" x2="129.0083" y2="125.5034">
				<stop  offset="0.0354" style="stop-color:#138BBD"/>
				<stop  offset="0.2257" style="stop-color:#169AC7"/>
				<stop  offset="0.5946" style="stop-color:#1FC3DF"/>
				<stop  offset="1" style="stop-color:#2AF6FF"/>
			</linearGradient>
			<polygon fill="url(#SVGID_96_)" points="95.752,144.034 95.752,150.19 60.654,129.73 60.654,123.594 			"/>
		</g>
		<g>
			<linearGradient id="SVGID_97_" gradientUnits="userSpaceOnUse" x1="107.9004" y1="131.5532" x2="195.5221" y2="105.3163">
				<stop  offset="0" style="stop-color:#25054D"/>
				<stop  offset="1" style="stop-color:#45108A"/>
			</linearGradient>
			<polygon fill="url(#SVGID_97_)" points="95.736,131.306 95.736,149.77 133.384,127.812 133.384,109.348 			"/>
			<linearGradient id="SVGID_98_" gradientUnits="userSpaceOnUse" x1="20.4736" y1="142.1821" x2="135.7769" y2="116.3348">
				<stop  offset="0" style="stop-color:#25054D"/>
				<stop  offset="1" style="stop-color:#45108A"/>
			</linearGradient>
			<polygon fill="url(#SVGID_98_)" points="95.757,131.306 95.757,149.77 57.984,127.75 57.984,109.309 			"/>
			<polygon fill="#25054D" points="61.175,125.916 61.175,114.86 92.565,133.14 92.565,144.215 			"/>
			<g>
				<linearGradient id="SVGID_99_" gradientUnits="userSpaceOnUse" x1="60.2861" y1="129.5386" x2="93.4541" y2="129.5386">
					<stop  offset="0" style="stop-color:#25054D"/>
					<stop  offset="1" style="stop-color:#45108A"/>
				</linearGradient>
				<path fill="url(#SVGID_99_)" d="M93.454,145.762l-33.168-19.336v-13.112l33.168,19.315V145.762z M62.063,125.405l29.613,17.264
					v-9.018l-29.613-17.245V125.405z"/>
			</g>
			<g>
				<g>
					<polygon fill="#2AF6FF" points="88.276,134.259 89.491,134.96 89.491,133.566 88.276,132.865 					"/>
					<polygon fill="#2AF6FF" points="85.994,132.941 87.209,133.643 87.209,132.249 85.994,131.547 					"/>
					<polygon fill="#4B61B8" points="83.711,131.624 84.927,132.325 84.927,130.931 83.711,130.229 					"/>
					<polygon fill="#25054D" points="81.429,130.306 82.644,131.007 82.644,129.613 81.429,128.912 					"/>
					<polygon fill="#25054D" points="79.146,128.988 80.361,129.69 80.361,128.295 79.146,127.594 					"/>
					<polygon fill="#4B61B8" points="76.864,127.67 78.079,128.372 78.079,126.978 76.864,126.276 					"/>
					<polygon fill="#4B61B8" points="74.582,126.353 75.797,127.054 75.797,125.66 74.582,124.958 					"/>
					<polygon fill="#4B61B8" points="72.3,125.035 73.515,125.736 73.515,124.342 72.3,123.641 					"/>
					<polygon fill="#25054D" points="70.018,123.717 71.232,124.418 71.232,123.024 70.018,122.323 					"/>
					<polygon fill="#4B61B8" points="67.734,122.399 68.949,123.101 68.949,121.707 67.734,121.005 					"/>
					<polygon fill="#2AF6FF" points="65.452,121.082 66.667,121.783 66.667,120.389 65.452,119.688 					"/>
					<polygon fill="#2AF6FF" points="63.17,119.764 64.385,120.465 64.385,119.071 63.17,118.37 					"/>
				</g>
				<g>
					<polygon fill="#4B61B8" points="88.276,136.737 89.491,137.438 89.491,136.044 88.276,135.343 					"/>
					<polygon fill="#2AF6FF" points="85.994,135.419 87.209,136.121 87.209,134.726 85.994,134.025 					"/>
					<polygon fill="#2AF6FF" points="83.711,134.101 84.927,134.803 84.927,133.409 83.711,132.708 					"/>
					<polygon fill="#25054D" points="81.429,132.784 82.644,133.485 82.644,132.091 81.429,131.389 					"/>
					<polygon fill="#2AF6FF" points="79.146,131.466 80.361,132.167 80.361,130.773 79.146,130.072 					"/>
					<polygon fill="#2AF6FF" points="76.864,130.148 78.079,130.85 78.079,129.456 76.864,128.754 					"/>
					<polygon fill="#2AF6FF" points="74.582,128.831 75.797,129.532 75.797,128.138 74.582,127.436 					"/>
					<polygon fill="#4B61B8" points="72.3,127.513 73.515,128.214 73.515,126.82 72.3,126.119 					"/>
					<polygon fill="#4B61B8" points="70.018,126.195 71.232,126.897 71.232,125.502 70.018,124.801 					"/>
					<polygon fill="#4B61B8" points="67.734,124.877 68.949,125.579 68.949,124.185 67.734,123.483 					"/>
					<polygon fill="#4B61B8" points="65.452,123.56 66.667,124.261 66.667,122.867 65.452,122.166 					"/>
					<polygon fill="#4B61B8" points="63.17,122.242 64.385,122.943 64.385,121.549 63.17,120.848 					"/>
				</g>
			</g>
			<g>
				<g>
					<polygon fill="#2AF6FF" points="88.276,139.196 89.491,139.897 89.491,138.502 88.276,137.801 					"/>
					<polygon fill="#4B61B8" points="85.994,137.877 87.209,138.58 87.209,137.185 85.994,136.484 					"/>
					<polygon fill="#4B61B8" points="83.711,136.56 84.927,137.261 84.927,135.868 83.711,135.166 					"/>
					<polygon fill="#4B61B8" points="81.429,135.243 82.644,135.944 82.644,134.549 81.429,133.848 					"/>
					<polygon fill="#4B61B8" points="79.146,133.924 80.361,134.626 80.361,133.232 79.146,132.531 					"/>
					<polygon fill="#4B61B8" points="76.864,132.607 78.079,133.308 78.079,131.915 76.864,131.212 					"/>
					<polygon fill="#25054D" points="74.582,131.29 75.797,131.991 75.797,130.596 74.582,129.895 					"/>
					<polygon fill="#2AF6FF" points="72.3,129.971 73.515,130.673 73.515,129.279 72.3,128.578 					"/>
					<polygon fill="#4B61B8" points="70.018,128.654 71.232,129.355 71.232,127.961 70.018,127.259 					"/>
					<polygon fill="#4B61B8" points="67.734,127.336 68.949,128.038 68.949,126.643 67.734,125.942 					"/>
					<polygon fill="#2AF6FF" points="65.452,126.018 66.667,126.719 66.667,125.326 65.452,124.624 					"/>
					<polygon fill="#2AF6FF" points="63.17,124.701 64.385,125.402 64.385,124.008 63.17,123.306 					"/>
				</g>
			</g>
			<radialGradient id="SVGID_100_" cx="95.6836" cy="120.1572" r="38.5963" gradientUnits="userSpaceOnUse">
				<stop  offset="0.096" style="stop-color:#45108A"/>
				<stop  offset="0.6717" style="stop-color:#25054D"/>
				<stop  offset="1" style="stop-color:#000000"/>
			</radialGradient>
			<polygon fill="url(#SVGID_100_)" points="95.757,130.706 58.498,109.008 57.984,109.309 95.757,131.306 133.384,109.348 
				132.869,109.048 			"/>
		</g>
		<g>
			<linearGradient id="SVGID_101_" gradientUnits="userSpaceOnUse" x1="95.6738" y1="88.9224" x2="95.6738" y2="121.2845">
				<stop  offset="0.0303" style="stop-color:#7C1DC9"/>
				<stop  offset="0.2138" style="stop-color:#6E41D2"/>
				<stop  offset="0.6184" style="stop-color:#4C9BE8"/>
				<stop  offset="1" style="stop-color:#2AF6FF"/>
			</linearGradient>
			<polygon fill="url(#SVGID_101_)" points="67.813,109.635 95.485,125.75 123.533,109.614 95.831,93.482 			"/>
		</g>
	</g>
	<g>
		<linearGradient id="SVGID_102_" gradientUnits="userSpaceOnUse" x1="163.8389" y1="179.2729" x2="191.4489" y2="241.2272">
			<stop  offset="0" style="stop-color:#25054D"/>
			<stop  offset="1" style="stop-color:#45108A"/>
		</linearGradient>
		<polygon fill="url(#SVGID_102_)" points="138.363,156.324 138.363,194.672 176.081,172.526 176.081,134.177 		"/>
		<polygon fill="#330A66" points="138.385,156.324 138.385,194.672 100.679,172.691 100.679,134.366 		"/>
		<polygon fill="#45108A" points="100.679,134.366 138.385,156.324 176.081,134.177 138.335,112.196 		"/>
		<radialGradient id="SVGID_103_" cx="138.3809" cy="145.1011" r="38.6591" gradientUnits="userSpaceOnUse">
			<stop  offset="0.096" style="stop-color:#45108A"/>
			<stop  offset="0.6717" style="stop-color:#25054D"/>
			<stop  offset="1" style="stop-color:#000000"/>
		</radialGradient>
		<polygon fill="url(#SVGID_103_)" points="138.385,155.723 101.191,134.064 100.68,134.366 138.385,156.324 176.081,134.177 
			175.568,133.878 		"/>
	</g>
</g>
<g>
	<polygon fill="#E2953F" points="31.808,192.441 38.013,196.046 42.047,193.662 35.831,190.05 	"/>
	<polygon fill="#E2953F" points="12.307,181.233 18.513,184.838 22.547,182.453 16.331,178.842 	"/>
	<linearGradient id="SVGID_104_" gradientUnits="userSpaceOnUse" x1="47.2549" y1="188.2407" x2="23.5876" y2="197.241">
		<stop  offset="0" style="stop-color:#FFFFFF"/>
		<stop  offset="1" style="stop-color:#A3653D"/>
	</linearGradient>
	<polygon fill="url(#SVGID_104_)" points="37.936,195.708 50.513,191.421 41.513,186.004 32.574,192.613 	"/>
	<linearGradient id="SVGID_105_" gradientUnits="userSpaceOnUse" x1="27.8379" y1="176.8237" x2="4.1713" y2="185.8237">
		<stop  offset="0" style="stop-color:#FFFFFF"/>
		<stop  offset="1" style="stop-color:#A3653D"/>
	</linearGradient>
	<polygon fill="url(#SVGID_105_)" points="18.52,184.292 31.096,180.004 22.096,174.588 13.158,181.196 	"/>
	<linearGradient id="SVGID_106_" gradientUnits="userSpaceOnUse" x1="50.7305" y1="215.5444" x2="54.0638" y2="220.8777">
		<stop  offset="0.0354" style="stop-color:#FFA98C"/>
		<stop  offset="0.3169" style="stop-color:#FFB892"/>
		<stop  offset="0.8601" style="stop-color:#FEE1A3"/>
		<stop  offset="1" style="stop-color:#FEECA8"/>
	</linearGradient>
	<path fill="url(#SVGID_106_)" d="M32.065,170.617l-6.376-3.682c-5.105-2.947-9.245-0.587-9.245,5.271v7.146l5.361,3.095v-5.316
		c0-3.333,2.355-4.676,5.26-2.998l3.624,2.092c2.905,1.677,5.26,5.739,5.26,9.072v5.316l5.361,3.095v-7.145
		C41.311,180.705,37.172,173.564,32.065,170.617z"/>
	<g>
		<linearGradient id="SVGID_107_" gradientUnits="userSpaceOnUse" x1="90.9209" y1="280.8062" x2="98.6137" y2="293.1146">
			<stop  offset="0.0354" style="stop-color:#FFA98C"/>
			<stop  offset="0.3169" style="stop-color:#FFB892"/>
			<stop  offset="0.8601" style="stop-color:#FEE1A3"/>
			<stop  offset="1" style="stop-color:#FEECA8"/>
		</linearGradient>
		<path fill="url(#SVGID_107_)" d="M32.066,170.617l-6.377-3.682c-2.539-1.466-4.839-1.616-6.51-0.68v-0.005l-3.417,2.042
			l0.683,4.13v6.93l1.265,0.73l0.721,4.364l3.375-2v-5.316c0-3.333,2.355-4.676,5.26-2.998l3.625,2.092
			c2.904,1.677,5.259,5.739,5.259,9.072v5.316l1.425,0.822l0.562,4.272l3.375-2l0,0l0,0v-7.145
			C41.311,180.704,37.172,173.564,32.066,170.617z"/>
		<linearGradient id="SVGID_108_" gradientUnits="userSpaceOnUse" x1="41.3096" y1="193.7075" x2="41.3096" y2="193.7075">
			<stop  offset="0.0354" style="stop-color:#FFA98C"/>
			<stop  offset="0.3169" style="stop-color:#FFB892"/>
			<stop  offset="0.8601" style="stop-color:#FEE1A3"/>
			<stop  offset="1" style="stop-color:#FEECA8"/>
		</linearGradient>
		<polygon fill="url(#SVGID_108_)" points="41.311,193.708 41.311,193.708 41.311,193.708 		"/>
	</g>
	<linearGradient id="SVGID_109_" gradientUnits="userSpaceOnUse" x1="41.3096" y1="193.7075" x2="41.3096" y2="193.7075">
		<stop  offset="0.0354" style="stop-color:#FFA98C"/>
		<stop  offset="0.3169" style="stop-color:#FFB892"/>
		<stop  offset="0.8601" style="stop-color:#FEE1A3"/>
		<stop  offset="1" style="stop-color:#FEECA8"/>
	</linearGradient>
	<polygon fill="url(#SVGID_109_)" points="41.311,193.708 41.311,193.708 41.311,193.708 	"/>
	<radialGradient id="SVGID_110_" cx="32.4844" cy="175.895" r="29.0289" gradientUnits="userSpaceOnUse">
		<stop  offset="0.096" style="stop-color:#FFE4A7"/>
		<stop  offset="0.4205" style="stop-color:#F4BE4C"/>
		<stop  offset="0.6717" style="stop-color:#ECA30A"/>
		<stop  offset="1" style="stop-color:#000000"/>
	</radialGradient>
	<path fill="url(#SVGID_110_)" d="M29.274,172.367l-6.376-3.682c-2.862-1.651-5.42-1.635-7.115-0.271l0.662,4.008v6.93l1.265,0.73
		l0.721,4.364l0.584-0.346v-5.221c0-2.469,1.294-3.842,3.145-3.708c0.759-1.825,2.667-2.334,4.906-1.04l3.625,2.092
		c2.904,1.677,5.259,5.739,5.259,9.072v5.316l1.425,0.822l0.562,4.272l0.584-0.346v-7.049
		C38.52,182.454,34.38,175.314,29.274,172.367z"/>
	<path d="M37.936,195.708L37.936,195.708L37.936,195.708z"/>
	<linearGradient id="SVGID_111_" gradientUnits="userSpaceOnUse" x1="6.6626" y1="217.189" x2="37.1626" y2="163.0224">
		<stop  offset="0.0354" style="stop-color:#FFA98C"/>
		<stop  offset="0.313" style="stop-color:#FFB893"/>
		<stop  offset="0.3225" style="stop-color:#FFB993"/>
		<stop  offset="0.8165" style="stop-color:#FEDDA2"/>
		<stop  offset="1" style="stop-color:#FEECA8"/>
	</linearGradient>
	<path fill="url(#SVGID_111_)" d="M28.69,172.617l-6.376-3.682c-5.105-2.947-9.245-0.587-9.245,5.271v7.146l5.361,3.095v-5.316
		c0-3.333,2.355-4.676,5.26-2.998l3.624,2.092c2.905,1.677,5.26,5.739,5.26,9.072v5.316l5.361,3.095v-7.145
		C37.936,182.705,33.797,175.564,28.69,172.617z"/>
</g>
</svg>
